<?xml version="1.0" encoding="UTF-8" standalone="no"?>
<!-- Created with Inkscape (http://www.inkscape.org/) -->

<svg
   xmlns:dc="http://purl.org/dc/elements/1.1/"
   xmlns:cc="http://creativecommons.org/ns#"
   xmlns:rdf="http://www.w3.org/1999/02/22-rdf-syntax-ns#"
   xmlns:svg="http://www.w3.org/2000/svg"
   xmlns="http://www.w3.org/2000/svg"
   xmlns:sodipodi="http://sodipodi.sourceforge.net/DTD/sodipodi-0.dtd"
   xmlns:inkscape="http://www.inkscape.org/namespaces/inkscape"
   id="svg2"
   version="1.1"
   inkscape:version="0.91 r13725"
   xml:space="preserve"
   width="423.94675"
   height="251.51109"
   viewBox="0 0 423.94675 251.51109"
   sodipodi:docname="AntennaSetupSeenFromAbove.svg"><metadata
     id="metadata8"><rdf:RDF><cc:Work
         rdf:about=""><dc:format>image/svg+xml</dc:format><dc:type
           rdf:resource="http://purl.org/dc/dcmitype/StillImage" /><dc:title></dc:title></cc:Work></rdf:RDF></metadata><defs
     id="defs6" /><sodipodi:namedview
     pagecolor="#ffffff"
     bordercolor="#666666"
     borderopacity="1"
     objecttolerance="10"
     gridtolerance="10"
     guidetolerance="10"
     inkscape:pageopacity="0"
     inkscape:pageshadow="2"
     inkscape:window-width="640"
     inkscape:window-height="480"
     id="namedview4"
     showgrid="false"
     inkscape:zoom="0.93832839"
     inkscape:cx="211.97337"
     inkscape:cy="125.75555"
     inkscape:window-x="0"
     inkscape:window-y="27"
     inkscape:window-maximized="0"
     inkscape:current-layer="g12" /><g
     id="g10"
     inkscape:groupmode="layer"
     inkscape:label="AntennaSetupSeenFromAbove"
     transform="matrix(1.25,0,0,-1.25,0,251.5111)"><g
       id="g12"><g
         id="g14"
         transform="matrix(-1,0,0,-0.439186,0,201.20888)"><path
           d="m -113.516,328.449 c 21.731,17.29 25.348,48.954 8.078,70.709 -17.265,21.765 -48.882,25.385 -70.613,8.094 -21.73,-17.29 -25.347,-48.954 -8.078,-70.718 2.195,-2.767 4.672,-5.293 7.395,-7.534"
           style="fill:#ffffff;fill-opacity:1;fill-rule:nonzero;stroke:#000000;stroke-width:1.19992006;stroke-linecap:butt;stroke-linejoin:miter;stroke-miterlimit:4;stroke-dasharray:none;stroke-opacity:1"
           id="path16"
           inkscape:connector-curvature="0" /></g><g
         id="g18"
         transform="matrix(1,0.349511,-0.795816,0.439186,0,201.20888)"><path
           d="m -86.196,-256.401 -6.499,3.757 0.004,-7.51 6.495,3.753 z"
           style="fill:#000000;fill-opacity:1;fill-rule:evenodd;stroke:#000000;stroke-width:0.93889302;stroke-linecap:butt;stroke-linejoin:miter;stroke-miterlimit:4;stroke-dasharray:none;stroke-opacity:1"
           id="path20"
           inkscape:connector-curvature="0" /></g><g
         id="g22"
         transform="matrix(-1,0.362254,-0.824831,-0.439186,0,201.20888)"><path
           d="m -262.401,109.041 -6.405,3.701 10e-4,-7.408 6.404,3.707 z"
           style="fill:#000000;fill-opacity:1;fill-rule:evenodd;stroke:#000000;stroke-width:0.92566299;stroke-linecap:butt;stroke-linejoin:miter;stroke-miterlimit:4;stroke-dasharray:none;stroke-opacity:1"
           id="path24"
           inkscape:connector-curvature="0" /></g><text
         transform="matrix(1,0,0,-1,317.92442,100.15858)"
         style="font-variant:normal;font-size:31.99999619px;font-family:CairoFont-0;-inkscape-font-specification:CairoFont-0-1;writing-mode:lr-tb;fill:#000000;fill-opacity:1;fill-rule:nonzero;stroke:none"
         id="text26"><tspan
           x="0"
           y="0"
           id="tspan28">θ</tspan></text>
<g
         id="g30"
         transform="matrix(1,0,0,-1,0,201.20888)"><path
           d="m 126.449,135.324 33.465,0 0,30.73 -33.465,0 0,-30.73 z"
           style="fill:#ffffff;fill-opacity:1;fill-rule:nonzero;stroke:#000000;stroke-width:1.20000005;stroke-linecap:butt;stroke-linejoin:miter;stroke-miterlimit:4;stroke-dasharray:none;stroke-opacity:1"
           id="path32"
           inkscape:connector-curvature="0" /></g><text
         transform="matrix(1,0,0,-1,80.971955,11.396441)"
         style="font-variant:normal;font-size:31.99999619px;font-family:CairoFont-0;-inkscape-font-specification:CairoFont-0-1;writing-mode:lr-tb;fill:#000000;fill-opacity:1;fill-rule:nonzero;stroke:none"
         id="text34"><tspan
           x="0"
           y="0"
           id="tspan36">ϕ</tspan></text>
<g
         id="g38"
         transform="matrix(-0.637323,0,0,-1,0,201.20888)"><path
           d="m -471.718,145.527 c -13.527,-13.14 -13.858,-34.773 -0.735,-48.32 0.882,-0.91 1.82,-1.773 2.801,-2.582"
           style="fill:#ffffff;fill-opacity:1;fill-rule:nonzero;stroke:#000000;stroke-width:1.03717101;stroke-linecap:butt;stroke-linejoin:miter;stroke-miterlimit:4;stroke-dasharray:none;stroke-opacity:1"
           id="path40"
           inkscape:connector-curvature="0" /></g><g
         id="g42"
         transform="matrix(-0.637323,-0.971489,0.619152,-1,0,201.20888)"><path
           d="m -166.513,310.629 -5.15,2.976 0.003,-5.952 5.147,2.976 z"
           style="fill:#000000;fill-opacity:1;fill-rule:evenodd;stroke:#000000;stroke-width:0.74391901;stroke-linecap:butt;stroke-linejoin:miter;stroke-miterlimit:4;stroke-dasharray:none;stroke-opacity:1"
           id="path44"
           inkscape:connector-curvature="0" /></g><g
         id="g46"
         transform="matrix(-0.637323,0.824831,-0.525684,-1,0,201.20888)"><path
           d="m -322.255,-174.227 -5.533,3.201 -0.003,-6.401 5.536,3.2 z"
           style="fill:#000000;fill-opacity:1;fill-rule:evenodd;stroke:#000000;stroke-width:0.80011302;stroke-linecap:butt;stroke-linejoin:miter;stroke-miterlimit:4;stroke-dasharray:none;stroke-opacity:1"
           id="path48"
           inkscape:connector-curvature="0" /></g><g
         id="g50"
         transform="matrix(1,0,0,-1,0,201.20888)"><path
           d="m 239.426,6.551 -189.473,0"
           style="fill:none;stroke:#000000;stroke-width:1.186957;stroke-linecap:butt;stroke-linejoin:miter;stroke-miterlimit:4;stroke-dasharray:none;stroke-opacity:1"
           id="path52"
           inkscape:connector-curvature="0" /></g><text
         transform="matrix(1,0,0,-1,132.41134,175.30015)"
         style="font-variant:normal;font-size:31.99999619px;font-family:CairoFont-0;-inkscape-font-specification:CairoFont-0-0;writing-mode:lr-tb;fill:#000000;fill-opacity:1;fill-rule:nonzero;stroke:none"
         id="text54"><tspan
           x="0"
           y="0"
           id="tspan56">x</tspan></text>
<g
         id="g58"
         transform="matrix(1,0,0,-1,0,201.20888)"><path
           d="m 49.254,1.98 0,11.696"
           style="fill:none;stroke:#000000;stroke-width:1.20000005;stroke-linecap:butt;stroke-linejoin:miter;stroke-miterlimit:4;stroke-dasharray:none;stroke-opacity:1"
           id="path60"
           inkscape:connector-curvature="0" /></g><g
         id="g62"
         transform="matrix(1,0,0,-1,0,201.20888)"><path
           d="m 238.957,0.703 0,11.692"
           style="fill:none;stroke:#000000;stroke-width:1.20000005;stroke-linecap:butt;stroke-linejoin:miter;stroke-miterlimit:4;stroke-dasharray:none;stroke-opacity:1"
           id="path64"
           inkscape:connector-curvature="0" /></g><g
         id="g66"
         transform="matrix(1,0,0,-1,0,201.20888)"><path
           d="m 97.898,56.973 c 0,23.871 -21.781,43.226 -48.648,43.226 -26.641,0 -48.328,-19.043 -48.641,-42.715 l 48.641,-0.511 48.648,0 z"
           style="fill:none;stroke:#000000;stroke-width:1.20000005;stroke-linecap:butt;stroke-linejoin:miter;stroke-miterlimit:4;stroke-dasharray:none;stroke-opacity:1"
           id="path68"
           inkscape:connector-curvature="0" /></g><text
         transform="matrix(1,0,0,-1,21.283662,129.80854)"
         style="font-variant:normal;font-weight:normal;font-size:11.99999905px;font-family:'Times New Roman';-inkscape-font-specification:TimesNewRomanPSMT;writing-mode:lr-tb;fill:#000000;fill-opacity:1;fill-rule:nonzero;stroke:none"
         id="text70"><tspan
           x="0 8.6639996 14.663999 17.987999 23.303999 29.303997 35.303997 40.619995 44.615997"
           y="0"
           sodipodi:role="line"
           id="tspan72">Antenna-1</tspan></text>
<g
         id="g74"
         transform="matrix(1,0,0,-1,0,201.20888)"><path
           d="m 5.293,124.043 c 276.363,0.812 278.437,1.09 278.437,1.09"
           style="fill:none;stroke:#000000;stroke-width:1.20000005;stroke-linecap:butt;stroke-linejoin:miter;stroke-miterlimit:4;stroke-dasharray:none;stroke-opacity:1"
           id="path76"
           inkscape:connector-curvature="0" /></g><g
         id="g78"
         transform="matrix(1,0,0,-1,0,201.20888)"><path
           d="m 5.27,124.223 278.223,0 0,11.965 -278.223,0 0,-11.965 z"
           style="fill:#ffffff;fill-opacity:1;fill-rule:nonzero;stroke:#000000;stroke-width:1.20000005;stroke-linecap:butt;stroke-linejoin:miter;stroke-miterlimit:4;stroke-dasharray:none;stroke-opacity:1"
           id="path80"
           inkscape:connector-curvature="0" /></g><g
         id="g82"
         transform="matrix(1,0,0,-1,0,201.20888)"><path
           d="m 55.016,38.621 c 0,3.184 -2.582,5.762 -5.762,5.762 -3.184,0 -5.766,-2.578 -5.766,-5.762 0,-3.183 2.582,-5.762 5.766,-5.762 3.18,0 5.762,2.579 5.762,5.762 z"
           style="fill:none;stroke:#000000;stroke-width:1.20000005;stroke-linecap:butt;stroke-linejoin:round;stroke-miterlimit:4;stroke-dasharray:none;stroke-opacity:1"
           id="path84"
           inkscape:connector-curvature="0" /></g><g
         id="g86"
         transform="matrix(1,0,0,-1,0,201.20888)"><path
           d="m 49.254,56.711 0,-12.887"
           style="fill:none;stroke:#000000;stroke-width:1.02450705;stroke-linecap:butt;stroke-linejoin:miter;stroke-miterlimit:4;stroke-dasharray:none;stroke-opacity:1"
           id="path88"
           inkscape:connector-curvature="0" /></g><g
         id="g90"
         transform="matrix(1,0,0,-1,0,201.20888)"><path
           d="m 52.77,99.73 20.933,24.235 0.09,0.23"
           style="fill:none;stroke:#000000;stroke-width:1.12991703;stroke-linecap:butt;stroke-linejoin:miter;stroke-miterlimit:4;stroke-dasharray:none;stroke-opacity:1"
           id="path92"
           inkscape:connector-curvature="0" /></g><g
         id="g94"
         transform="matrix(1,0,0,-1,0,201.20888)"><path
           d="m 47.309,100.555 -20.106,23.281 -0.09,0.223"
           style="fill:none;stroke:#000000;stroke-width:1.08545494;stroke-linecap:butt;stroke-linejoin:miter;stroke-miterlimit:4;stroke-dasharray:none;stroke-opacity:1"
           id="path96"
           inkscape:connector-curvature="0" /></g><g
         id="g98"
         transform="matrix(1,0,0,-1,0,201.20888)"><path
           d="m 287.844,56.871 c 0,23.875 -21.778,43.227 -48.645,43.227 -26.644,0 -48.328,-19.043 -48.644,-42.715 l 48.644,-0.512 48.645,0 z"
           style="fill:none;stroke:#000000;stroke-width:1.20000005;stroke-linecap:butt;stroke-linejoin:miter;stroke-miterlimit:4;stroke-dasharray:none;stroke-opacity:1"
           id="path100"
           inkscape:connector-curvature="0" /></g><text
         transform="matrix(1,0,0,-1,211.23101,129.90905)"
         style="font-variant:normal;font-weight:normal;font-size:12px;font-family:'Times New Roman';-inkscape-font-specification:TimesNewRomanPSMT;writing-mode:lr-tb;fill:#000000;fill-opacity:1;fill-rule:nonzero;stroke:none"
         id="text102"><tspan
           x="0 8.6639996 14.664 17.988001 23.304001 29.304001 35.304001 40.619999"
           y="0"
           sodipodi:role="line"
           id="tspan104">Antenna-2</tspan></text>
<g
         id="g106"
         transform="matrix(1,0,0,-1,0,201.20888)"><path
           d="m 244.961,38.52 c 0,3.183 -2.578,5.765 -5.762,5.765 -3.183,0 -5.761,-2.582 -5.761,-5.765 0,-3.18 2.578,-5.762 5.761,-5.762 3.184,0 5.762,2.582 5.762,5.762 z"
           style="fill:none;stroke:#000000;stroke-width:1.20000005;stroke-linecap:butt;stroke-linejoin:round;stroke-miterlimit:4;stroke-dasharray:none;stroke-opacity:1"
           id="path108"
           inkscape:connector-curvature="0" /></g><g
         id="g110"
         transform="matrix(1,0,0,-1,0,201.20888)"><path
           d="m 239.199,56.609 0,-12.882"
           style="fill:none;stroke:#000000;stroke-width:1.02450705;stroke-linecap:butt;stroke-linejoin:miter;stroke-miterlimit:4;stroke-dasharray:none;stroke-opacity:1"
           id="path112"
           inkscape:connector-curvature="0" /></g><g
         id="g114"
         transform="matrix(1,0,0,-1,0,201.20888)"><path
           d="m 242.719,99.629 20.929,24.238 0.094,0.227"
           style="fill:none;stroke:#000000;stroke-width:1.12991703;stroke-linecap:butt;stroke-linejoin:miter;stroke-miterlimit:4;stroke-dasharray:none;stroke-opacity:1"
           id="path116"
           inkscape:connector-curvature="0" /></g><g
         id="g118"
         transform="matrix(1,0,0,-1,0,201.20888)"><path
           d="m 237.258,100.453 -20.11,23.285 -0.085,0.219"
           style="fill:none;stroke:#000000;stroke-width:1.08545494;stroke-linecap:butt;stroke-linejoin:miter;stroke-miterlimit:4;stroke-dasharray:none;stroke-opacity:1"
           id="path120"
           inkscape:connector-curvature="0" /></g></g></g></svg>