<?xml version="1.0" encoding="UTF-8" standalone="no"?>
<!-- Created with Inkscape (http://www.inkscape.org/) -->

<svg
   xmlns:dc="http://purl.org/dc/elements/1.1/"
   xmlns:cc="http://creativecommons.org/ns#"
   xmlns:rdf="http://www.w3.org/1999/02/22-rdf-syntax-ns#"
   xmlns:svg="http://www.w3.org/2000/svg"
   xmlns="http://www.w3.org/2000/svg"
   xmlns:sodipodi="http://sodipodi.sourceforge.net/DTD/sodipodi-0.dtd"
   xmlns:inkscape="http://www.inkscape.org/namespaces/inkscape"
   id="svg2"
   version="1.1"
   inkscape:version="0.48.5 r10040"
   width="1444.7079"
   height="525.65698"
   xml:space="preserve"
   sodipodi:docname="phaseapproxerr.pdf"><metadata
     id="metadata8"><rdf:RDF><cc:Work
         rdf:about=""><dc:format>image/svg+xml</dc:format><dc:type
           rdf:resource="http://purl.org/dc/dcmitype/StillImage" /><dc:title></dc:title></cc:Work></rdf:RDF></metadata><defs
     id="defs6"><clipPath
       clipPathUnits="userSpaceOnUse"
       id="clipPath18"><path
         d="m 0,0 1920,0 0,600.99999 -1920,0 L 0,0 z"
         id="path20"
         inkscape:connector-curvature="0" /></clipPath></defs><sodipodi:namedview
     pagecolor="#ffffff"
     bordercolor="#666666"
     borderopacity="1"
     objecttolerance="10"
     gridtolerance="10"
     guidetolerance="10"
     inkscape:pageopacity="0"
     inkscape:pageshadow="2"
     inkscape:window-width="1920"
     inkscape:window-height="1017"
     id="namedview4"
     showgrid="false"
     fit-margin-top="0"
     fit-margin-left="0"
     fit-margin-right="0"
     fit-margin-bottom="0"
     inkscape:zoom="0.54054385"
     inkscape:cx="1107.5306"
     inkscape:cy="11.004704"
     inkscape:window-x="-8"
     inkscape:window-y="-8"
     inkscape:window-maximized="1"
     inkscape:current-layer="g10" /><g
     id="g10"
     inkscape:groupmode="layer"
     inkscape:label="phaseapproxerr"
     transform="matrix(1.25,0,0,-1.25,-184.98942,527.74414)"><g
       transform="matrix(0.75000002,0,0,-0.75000002,0,451)"
       id="g28"><path
         inkscape:connector-curvature="0"
         id="path30"
         style="fill:#ffffff;fill-opacity:1;fill-rule:nonzero;stroke:none"
         d="m 250,535 1488,0 0,-490 -1488,0 0,490 z" /></g><g
       transform="matrix(0.75000002,0,0,-0.75000002,0,451)"
       id="g32"><path
         inkscape:connector-curvature="0"
         id="path34"
         style="fill:none;stroke:#262626;stroke-width:0.66666698;stroke-linecap:square;stroke-linejoin:round;stroke-miterlimit:10;stroke-opacity:1;stroke-dasharray:none"
         d="m 250,535 1488,0" /></g><g
       transform="matrix(0.75000002,0,0,-0.75000002,0,451)"
       id="g36"><path
         inkscape:connector-curvature="0"
         id="path38"
         style="fill:none;stroke:#262626;stroke-width:0.66666698;stroke-linecap:square;stroke-linejoin:round;stroke-miterlimit:10;stroke-opacity:1;stroke-dasharray:none"
         d="m 250,45 1488,0" /></g><g
       transform="matrix(0.75000002,0,0,-0.75000002,0,451)"
       id="g40"><path
         inkscape:connector-curvature="0"
         id="path42"
         style="fill:none;stroke:#262626;stroke-width:0.66666698;stroke-linecap:square;stroke-linejoin:round;stroke-miterlimit:10;stroke-opacity:1;stroke-dasharray:none"
         d="m 436,535 0,-14.88" /></g><g
       transform="matrix(0.75000002,0,0,-0.75000002,0,451)"
       id="g44"><path
         inkscape:connector-curvature="0"
         id="path46"
         style="fill:none;stroke:#262626;stroke-width:0.66666698;stroke-linecap:square;stroke-linejoin:round;stroke-miterlimit:10;stroke-opacity:1;stroke-dasharray:none"
         d="m 622,535 0,-14.88" /></g><g
       transform="matrix(0.75000002,0,0,-0.75000002,0,451)"
       id="g48"><path
         inkscape:connector-curvature="0"
         id="path50"
         style="fill:none;stroke:#262626;stroke-width:0.66666698;stroke-linecap:square;stroke-linejoin:round;stroke-miterlimit:10;stroke-opacity:1;stroke-dasharray:none"
         d="m 808,535 0,-14.88" /></g><g
       transform="matrix(0.75000002,0,0,-0.75000002,0,451)"
       id="g52"><path
         inkscape:connector-curvature="0"
         id="path54"
         style="fill:none;stroke:#262626;stroke-width:0.66666698;stroke-linecap:square;stroke-linejoin:round;stroke-miterlimit:10;stroke-opacity:1;stroke-dasharray:none"
         d="m 994,535 0,-14.88" /></g><g
       transform="matrix(0.75000002,0,0,-0.75000002,0,451)"
       id="g56"><path
         inkscape:connector-curvature="0"
         id="path58"
         style="fill:none;stroke:#262626;stroke-width:0.66666698;stroke-linecap:square;stroke-linejoin:round;stroke-miterlimit:10;stroke-opacity:1;stroke-dasharray:none"
         d="m 1180,535 0,-14.88" /></g><g
       transform="matrix(0.75000002,0,0,-0.75000002,0,451)"
       id="g60"><path
         inkscape:connector-curvature="0"
         id="path62"
         style="fill:none;stroke:#262626;stroke-width:0.66666698;stroke-linecap:square;stroke-linejoin:round;stroke-miterlimit:10;stroke-opacity:1;stroke-dasharray:none"
         d="m 1366,535 0,-14.88" /></g><g
       transform="matrix(0.75000002,0,0,-0.75000002,0,451)"
       id="g64"><path
         inkscape:connector-curvature="0"
         id="path66"
         style="fill:none;stroke:#262626;stroke-width:0.66666698;stroke-linecap:square;stroke-linejoin:round;stroke-miterlimit:10;stroke-opacity:1;stroke-dasharray:none"
         d="m 1552,535 0,-14.88" /></g><g
       transform="matrix(0.75000002,0,0,-0.75000002,0,451)"
       id="g68"><path
         inkscape:connector-curvature="0"
         id="path70"
         style="fill:none;stroke:#262626;stroke-width:0.66666698;stroke-linecap:square;stroke-linejoin:round;stroke-miterlimit:10;stroke-opacity:1;stroke-dasharray:none"
         d="m 436,45 0,14.880001" /></g><g
       transform="matrix(0.75000002,0,0,-0.75000002,0,451)"
       id="g72"><path
         inkscape:connector-curvature="0"
         id="path74"
         style="fill:none;stroke:#262626;stroke-width:0.66666698;stroke-linecap:square;stroke-linejoin:round;stroke-miterlimit:10;stroke-opacity:1;stroke-dasharray:none"
         d="m 622,45 0,14.880001" /></g><g
       transform="matrix(0.75000002,0,0,-0.75000002,0,451)"
       id="g76"><path
         inkscape:connector-curvature="0"
         id="path78"
         style="fill:none;stroke:#262626;stroke-width:0.66666698;stroke-linecap:square;stroke-linejoin:round;stroke-miterlimit:10;stroke-opacity:1;stroke-dasharray:none"
         d="m 808,45 0,14.880001" /></g><g
       transform="matrix(0.75000002,0,0,-0.75000002,0,451)"
       id="g80"><path
         inkscape:connector-curvature="0"
         id="path82"
         style="fill:none;stroke:#262626;stroke-width:0.66666698;stroke-linecap:square;stroke-linejoin:round;stroke-miterlimit:10;stroke-opacity:1;stroke-dasharray:none"
         d="m 994,45 0,14.880001" /></g><g
       transform="matrix(0.75000002,0,0,-0.75000002,0,451)"
       id="g84"><path
         inkscape:connector-curvature="0"
         id="path86"
         style="fill:none;stroke:#262626;stroke-width:0.66666698;stroke-linecap:square;stroke-linejoin:round;stroke-miterlimit:10;stroke-opacity:1;stroke-dasharray:none"
         d="m 1180,45 0,14.880001" /></g><g
       transform="matrix(0.75000002,0,0,-0.75000002,0,451)"
       id="g88"><path
         inkscape:connector-curvature="0"
         id="path90"
         style="fill:none;stroke:#262626;stroke-width:0.66666698;stroke-linecap:square;stroke-linejoin:round;stroke-miterlimit:10;stroke-opacity:1;stroke-dasharray:none"
         d="m 1366,45 0,14.880001" /></g><g
       transform="matrix(0.75000002,0,0,-0.75000002,0,451)"
       id="g92"><path
         inkscape:connector-curvature="0"
         id="path94"
         style="fill:none;stroke:#262626;stroke-width:0.66666698;stroke-linecap:square;stroke-linejoin:round;stroke-miterlimit:10;stroke-opacity:1;stroke-dasharray:none"
         d="m 1552,45 0,14.880001" /></g><g
       id="g96"
       transform="matrix(0.24,0,0,-0.24,0,451)"><g
         transform="matrix(3.1250001,0,0,3.1250001,1362.5,1693.5418)"
         id="g98"><text
   id="text100"
   transform="translate(-6,22)"><tspan
     id="tspan102"
     y="0"
     x="0"
     style="font-size:21px;font-variant:normal;font-weight:normal;writing-mode:lr-tb;fill:#262626;fill-opacity:1;fill-rule:nonzero;stroke:none;font-family:Helvetica;-inkscape-font-specification:Helvetica">5</tspan></text>

</g></g><g
       id="g104"
       transform="matrix(0.24,0,0,-0.24,0,451)"><g
         transform="matrix(3.1250001,0,0,3.1250001,1943.75,1693.5418)"
         id="g106"><text
   id="text108"
   transform="translate(-12,22)"><tspan
     id="tspan110"
     sodipodi:role="line"
     y="0"
     x="0 11.676"
     style="font-size:21px;font-variant:normal;font-weight:normal;writing-mode:lr-tb;fill:#262626;fill-opacity:1;fill-rule:nonzero;stroke:none;font-family:Helvetica;-inkscape-font-specification:Helvetica">50</tspan></text>

</g></g><g
       id="g112"
       transform="matrix(0.24,0,0,-0.24,0,451)"><g
         transform="matrix(3.1250001,0,0,3.1250001,2525.0001,1693.5418)"
         id="g114"><text
   id="text116"
   transform="translate(-18,22)"><tspan
     id="tspan118"
     sodipodi:role="line"
     y="0"
     x="0 11.676 23.351999"
     style="font-size:21px;font-variant:normal;font-weight:normal;writing-mode:lr-tb;fill:#262626;fill-opacity:1;fill-rule:nonzero;stroke:none;font-family:Helvetica;-inkscape-font-specification:Helvetica">100</tspan></text>

</g></g><g
       id="g120"
       transform="matrix(0.24,0,0,-0.24,0,451)"><g
         transform="matrix(3.1250001,0,0,3.1250001,3106.2501,1693.5418)"
         id="g122"><text
   id="text124"
   transform="translate(-18,22)"><tspan
     id="tspan126"
     sodipodi:role="line"
     y="0"
     x="0 11.676 23.351999"
     style="font-size:21px;font-variant:normal;font-weight:normal;writing-mode:lr-tb;fill:#262626;fill-opacity:1;fill-rule:nonzero;stroke:none;font-family:Helvetica;-inkscape-font-specification:Helvetica">200</tspan></text>

</g></g><g
       id="g128"
       transform="matrix(0.24,0,0,-0.24,0,451)"><g
         transform="matrix(3.1250001,0,0,3.1250001,3687.5001,1693.5418)"
         id="g130"><text
   id="text132"
   transform="translate(-18,22)"><tspan
     id="tspan134"
     sodipodi:role="line"
     y="0"
     x="0 11.676 23.351999"
     style="font-size:21px;font-variant:normal;font-weight:normal;writing-mode:lr-tb;fill:#262626;fill-opacity:1;fill-rule:nonzero;stroke:none;font-family:Helvetica;-inkscape-font-specification:Helvetica">300</tspan></text>

</g></g><g
       id="g136"
       transform="matrix(0.24,0,0,-0.24,0,451)"><g
         transform="matrix(3.1250001,0,0,3.1250001,4268.7501,1693.5418)"
         id="g138"><text
   id="text140"
   transform="translate(-18,22)"><tspan
     id="tspan142"
     sodipodi:role="line"
     y="0"
     x="0 11.676 23.351999"
     style="font-size:21px;font-variant:normal;font-weight:normal;writing-mode:lr-tb;fill:#262626;fill-opacity:1;fill-rule:nonzero;stroke:none;font-family:Helvetica;-inkscape-font-specification:Helvetica">400</tspan></text>

</g></g><g
       id="g144"
       transform="matrix(0.24,0,0,-0.24,0,451)"><g
         transform="matrix(3.1250001,0,0,3.1250001,4850.0001,1693.5418)"
         id="g146"><text
   id="text148"
   transform="translate(-18,22)"><tspan
     id="tspan150"
     sodipodi:role="line"
     y="0"
     x="0 11.676 23.351999"
     style="font-size:21px;font-variant:normal;font-weight:normal;writing-mode:lr-tb;fill:#262626;fill-opacity:1;fill-rule:nonzero;stroke:none;font-family:Helvetica;-inkscape-font-specification:Helvetica">450</tspan></text>

</g></g><g
       id="g152"
       transform="matrix(0.24,0,0,-0.24,0,451)"><g
         transform="matrix(3.1250001,0,0,3.1250001,3106.2524,1782.0834)"
         id="g154"><text
   id="text156"
   transform="translate(-86,24)"><tspan
     id="tspan158"
     sodipodi:role="line"
     y="0"
     x="0 14.053 21.712 34.5 47.287998 60.076 72.863998 85.652 97.152 108.652 115.046 121.44 136.78101 153.38699 164.88699"
     style="font-size:23px;font-variant:normal;font-weight:normal;writing-mode:lr-tb;fill:#262626;fill-opacity:1;fill-rule:nonzero;stroke:none;font-family:Helvetica;-inkscape-font-specification:Helvetica">Frequency [KHz]</tspan></text>

</g></g><g
       transform="matrix(0.75000002,0,0,-0.75000002,0,451)"
       id="g160"><path
         inkscape:connector-curvature="0"
         id="path162"
         style="fill:none;stroke:#262626;stroke-width:0.66666698;stroke-linecap:square;stroke-linejoin:round;stroke-miterlimit:10;stroke-opacity:1;stroke-dasharray:none"
         d="M 250,535 250,45" /></g><g
       transform="matrix(0.75000002,0,0,-0.75000002,0,451)"
       id="g164"><path
         inkscape:connector-curvature="0"
         id="path166"
         style="fill:none;stroke:#262626;stroke-width:0.66666698;stroke-linecap:square;stroke-linejoin:round;stroke-miterlimit:10;stroke-opacity:1;stroke-dasharray:none"
         d="m 1738,535 0,-490" /></g><g
       transform="matrix(0.75000002,0,0,-0.75000002,0,451)"
       id="g168"><path
         inkscape:connector-curvature="0"
         id="path170"
         style="fill:none;stroke:#262626;stroke-width:0.66666698;stroke-linecap:square;stroke-linejoin:round;stroke-miterlimit:10;stroke-opacity:1;stroke-dasharray:none"
         d="m 250,535 14.88,0" /></g><g
       transform="matrix(0.75000002,0,0,-0.75000002,0,451)"
       id="g172"><path
         inkscape:connector-curvature="0"
         id="path174"
         style="fill:none;stroke:#262626;stroke-width:0.66666698;stroke-linecap:square;stroke-linejoin:round;stroke-miterlimit:10;stroke-opacity:1;stroke-dasharray:none"
         d="m 250,480.55554 14.88,0" /></g><g
       transform="matrix(0.75000002,0,0,-0.75000002,0,451)"
       id="g176"><path
         inkscape:connector-curvature="0"
         id="path178"
         style="fill:none;stroke:#262626;stroke-width:0.66666698;stroke-linecap:square;stroke-linejoin:round;stroke-miterlimit:10;stroke-opacity:1;stroke-dasharray:none"
         d="m 250,426.11111 14.88,0" /></g><g
       transform="matrix(0.75000002,0,0,-0.75000002,0,451)"
       id="g180"><path
         inkscape:connector-curvature="0"
         id="path182"
         style="fill:none;stroke:#262626;stroke-width:0.66666698;stroke-linecap:square;stroke-linejoin:round;stroke-miterlimit:10;stroke-opacity:1;stroke-dasharray:none"
         d="m 250,371.66666 14.88,0" /></g><g
       transform="matrix(0.75000002,0,0,-0.75000002,0,451)"
       id="g184"><path
         inkscape:connector-curvature="0"
         id="path186"
         style="fill:none;stroke:#262626;stroke-width:0.66666698;stroke-linecap:square;stroke-linejoin:round;stroke-miterlimit:10;stroke-opacity:1;stroke-dasharray:none"
         d="m 250,317.22223 14.88,0" /></g><g
       transform="matrix(0.75000002,0,0,-0.75000002,0,451)"
       id="g188"><path
         inkscape:connector-curvature="0"
         id="path190"
         style="fill:none;stroke:#262626;stroke-width:0.66666698;stroke-linecap:square;stroke-linejoin:round;stroke-miterlimit:10;stroke-opacity:1;stroke-dasharray:none"
         d="m 250,262.77777 14.88,0" /></g><g
       transform="matrix(0.75000002,0,0,-0.75000002,0,451)"
       id="g192"><path
         inkscape:connector-curvature="0"
         id="path194"
         style="fill:none;stroke:#262626;stroke-width:0.66666698;stroke-linecap:square;stroke-linejoin:round;stroke-miterlimit:10;stroke-opacity:1;stroke-dasharray:none"
         d="m 250,208.33333 14.88,0" /></g><g
       transform="matrix(0.75000002,0,0,-0.75000002,0,451)"
       id="g196"><path
         inkscape:connector-curvature="0"
         id="path198"
         style="fill:none;stroke:#262626;stroke-width:0.66666698;stroke-linecap:square;stroke-linejoin:round;stroke-miterlimit:10;stroke-opacity:1;stroke-dasharray:none"
         d="m 250,153.88889 14.88,0" /></g><g
       transform="matrix(0.75000002,0,0,-0.75000002,0,451)"
       id="g200"><path
         inkscape:connector-curvature="0"
         id="path202"
         style="fill:none;stroke:#262626;stroke-width:0.66666698;stroke-linecap:square;stroke-linejoin:round;stroke-miterlimit:10;stroke-opacity:1;stroke-dasharray:none"
         d="m 250,99.444443 14.88,0" /></g><g
       transform="matrix(0.75000002,0,0,-0.75000002,0,451)"
       id="g204"><path
         inkscape:connector-curvature="0"
         id="path206"
         style="fill:none;stroke:#262626;stroke-width:0.66666698;stroke-linecap:square;stroke-linejoin:round;stroke-miterlimit:10;stroke-opacity:1;stroke-dasharray:none"
         d="m 250,45 14.88,0" /></g><g
       transform="matrix(0.75000002,0,0,-0.75000002,0,451)"
       id="g208"><path
         inkscape:connector-curvature="0"
         id="path210"
         style="fill:none;stroke:#262626;stroke-width:0.66666698;stroke-linecap:square;stroke-linejoin:round;stroke-miterlimit:10;stroke-opacity:1;stroke-dasharray:none"
         d="m 1738,535 -14.88,0" /></g><g
       transform="matrix(0.75000002,0,0,-0.75000002,0,451)"
       id="g212"><path
         inkscape:connector-curvature="0"
         id="path214"
         style="fill:none;stroke:#262626;stroke-width:0.66666698;stroke-linecap:square;stroke-linejoin:round;stroke-miterlimit:10;stroke-opacity:1;stroke-dasharray:none"
         d="m 1738,480.55554 -14.88,0" /></g><g
       transform="matrix(0.75000002,0,0,-0.75000002,0,451)"
       id="g216"><path
         inkscape:connector-curvature="0"
         id="path218"
         style="fill:none;stroke:#262626;stroke-width:0.66666698;stroke-linecap:square;stroke-linejoin:round;stroke-miterlimit:10;stroke-opacity:1;stroke-dasharray:none"
         d="m 1738,426.11111 -14.88,0" /></g><g
       transform="matrix(0.75000002,0,0,-0.75000002,0,451)"
       id="g220"><path
         inkscape:connector-curvature="0"
         id="path222"
         style="fill:none;stroke:#262626;stroke-width:0.66666698;stroke-linecap:square;stroke-linejoin:round;stroke-miterlimit:10;stroke-opacity:1;stroke-dasharray:none"
         d="m 1738,371.66666 -14.88,0" /></g><g
       transform="matrix(0.75000002,0,0,-0.75000002,0,451)"
       id="g224"><path
         inkscape:connector-curvature="0"
         id="path226"
         style="fill:none;stroke:#262626;stroke-width:0.66666698;stroke-linecap:square;stroke-linejoin:round;stroke-miterlimit:10;stroke-opacity:1;stroke-dasharray:none"
         d="m 1738,317.22223 -14.88,0" /></g><g
       transform="matrix(0.75000002,0,0,-0.75000002,0,451)"
       id="g228"><path
         inkscape:connector-curvature="0"
         id="path230"
         style="fill:none;stroke:#262626;stroke-width:0.66666698;stroke-linecap:square;stroke-linejoin:round;stroke-miterlimit:10;stroke-opacity:1;stroke-dasharray:none"
         d="m 1738,262.77777 -14.88,0" /></g><g
       transform="matrix(0.75000002,0,0,-0.75000002,0,451)"
       id="g232"><path
         inkscape:connector-curvature="0"
         id="path234"
         style="fill:none;stroke:#262626;stroke-width:0.66666698;stroke-linecap:square;stroke-linejoin:round;stroke-miterlimit:10;stroke-opacity:1;stroke-dasharray:none"
         d="m 1738,208.33333 -14.88,0" /></g><g
       transform="matrix(0.75000002,0,0,-0.75000002,0,451)"
       id="g236"><path
         inkscape:connector-curvature="0"
         id="path238"
         style="fill:none;stroke:#262626;stroke-width:0.66666698;stroke-linecap:square;stroke-linejoin:round;stroke-miterlimit:10;stroke-opacity:1;stroke-dasharray:none"
         d="m 1738,153.88889 -14.88,0" /></g><g
       transform="matrix(0.75000002,0,0,-0.75000002,0,451)"
       id="g240"><path
         inkscape:connector-curvature="0"
         id="path242"
         style="fill:none;stroke:#262626;stroke-width:0.66666698;stroke-linecap:square;stroke-linejoin:round;stroke-miterlimit:10;stroke-opacity:1;stroke-dasharray:none"
         d="m 1738,99.444443 -14.88,0" /></g><g
       transform="matrix(0.75000002,0,0,-0.75000002,0,451)"
       id="g244"><path
         inkscape:connector-curvature="0"
         id="path246"
         style="fill:none;stroke:#262626;stroke-width:0.66666698;stroke-linecap:square;stroke-linejoin:round;stroke-miterlimit:10;stroke-opacity:1;stroke-dasharray:none"
         d="m 1738,45 -14.88,0" /></g><g
       id="g248"
       transform="matrix(0.24,0,0,-0.24,0,451)"><g
         transform="matrix(3.1250001,0,0,3.1250001,759.58335,1671.875)"
         id="g250"><text
   id="text252"
   transform="translate(-19,8.5)"><tspan
     id="tspan254"
     sodipodi:role="line"
     y="0"
     x="0 6.993"
     style="font-size:21px;font-variant:normal;font-weight:normal;writing-mode:lr-tb;fill:#262626;fill-opacity:1;fill-rule:nonzero;stroke:none;font-family:Helvetica;-inkscape-font-specification:Helvetica">-6</tspan></text>

</g></g><g
       id="g256"
       transform="matrix(0.24,0,0,-0.24,0,451)"><g
         transform="matrix(3.1250001,0,0,3.1250001,759.58335,1501.7361)"
         id="g258"><text
   id="text260"
   transform="translate(-19,8.5)"><tspan
     id="tspan262"
     sodipodi:role="line"
     y="0"
     x="0 6.993"
     style="font-size:21px;font-variant:normal;font-weight:normal;writing-mode:lr-tb;fill:#262626;fill-opacity:1;fill-rule:nonzero;stroke:none;font-family:Helvetica;-inkscape-font-specification:Helvetica">-5</tspan></text>

</g></g><g
       id="g264"
       transform="matrix(0.24,0,0,-0.24,0,451)"><g
         transform="matrix(3.1250001,0,0,3.1250001,759.58335,1331.5973)"
         id="g266"><text
   id="text268"
   transform="translate(-19,8.5)"><tspan
     id="tspan270"
     sodipodi:role="line"
     y="0"
     x="0 6.993"
     style="font-size:21px;font-variant:normal;font-weight:normal;writing-mode:lr-tb;fill:#262626;fill-opacity:1;fill-rule:nonzero;stroke:none;font-family:Helvetica;-inkscape-font-specification:Helvetica">-4</tspan></text>

</g></g><g
       id="g272"
       transform="matrix(0.24,0,0,-0.24,0,451)"><g
         transform="matrix(3.1250001,0,0,3.1250001,759.58335,1161.4583)"
         id="g274"><text
   id="text276"
   transform="translate(-19,8.5)"><tspan
     id="tspan278"
     sodipodi:role="line"
     y="0"
     x="0 6.993"
     style="font-size:21px;font-variant:normal;font-weight:normal;writing-mode:lr-tb;fill:#262626;fill-opacity:1;fill-rule:nonzero;stroke:none;font-family:Helvetica;-inkscape-font-specification:Helvetica">-3</tspan></text>

</g></g><g
       id="g280"
       transform="matrix(0.24,0,0,-0.24,0,451)"><g
         transform="matrix(3.1250001,0,0,3.1250001,759.58335,991.31949)"
         id="g282"><text
   id="text284"
   transform="translate(-19,8.5)"><tspan
     id="tspan286"
     sodipodi:role="line"
     y="0"
     x="0 6.993"
     style="font-size:21px;font-variant:normal;font-weight:normal;writing-mode:lr-tb;fill:#262626;fill-opacity:1;fill-rule:nonzero;stroke:none;font-family:Helvetica;-inkscape-font-specification:Helvetica">-2</tspan></text>

</g></g><g
       id="g288"
       transform="matrix(0.24,0,0,-0.24,0,451)"><g
         transform="matrix(3.1250001,0,0,3.1250001,759.58335,821.18055)"
         id="g290"><text
   id="text292"
   transform="translate(-19,8.5)"><tspan
     id="tspan294"
     sodipodi:role="line"
     y="0"
     x="0 6.993"
     style="font-size:21px;font-variant:normal;font-weight:normal;writing-mode:lr-tb;fill:#262626;fill-opacity:1;fill-rule:nonzero;stroke:none;font-family:Helvetica;-inkscape-font-specification:Helvetica">-1</tspan></text>

</g></g><g
       id="g296"
       transform="matrix(0.24,0,0,-0.24,0,451)"><g
         transform="matrix(3.1250001,0,0,3.1250001,759.58335,651.04167)"
         id="g298"><text
   id="text300"
   transform="translate(-12,8.5)"><tspan
     id="tspan302"
     y="0"
     x="0"
     style="font-size:21px;font-variant:normal;font-weight:normal;writing-mode:lr-tb;fill:#262626;fill-opacity:1;fill-rule:nonzero;stroke:none;font-family:Helvetica;-inkscape-font-specification:Helvetica">0</tspan></text>

</g></g><g
       id="g304"
       transform="matrix(0.24,0,0,-0.24,0,451)"><g
         transform="matrix(3.1250001,0,0,3.1250001,759.58335,480.90278)"
         id="g306"><text
   id="text308"
   transform="translate(-12,8.5)"><tspan
     id="tspan310"
     y="0"
     x="0"
     style="font-size:21px;font-variant:normal;font-weight:normal;writing-mode:lr-tb;fill:#262626;fill-opacity:1;fill-rule:nonzero;stroke:none;font-family:Helvetica;-inkscape-font-specification:Helvetica">1</tspan></text>

</g></g><g
       id="g312"
       transform="matrix(0.24,0,0,-0.24,0,451)"><g
         transform="matrix(3.1250001,0,0,3.1250001,759.58335,310.76389)"
         id="g314"><text
   id="text316"
   transform="translate(-12,8.5)"><tspan
     id="tspan318"
     y="0"
     x="0"
     style="font-size:21px;font-variant:normal;font-weight:normal;writing-mode:lr-tb;fill:#262626;fill-opacity:1;fill-rule:nonzero;stroke:none;font-family:Helvetica;-inkscape-font-specification:Helvetica">2</tspan></text>

</g></g><g
       id="g320"
       transform="matrix(0.24,0,0,-0.24,0,451)"><g
         transform="matrix(3.1250001,0,0,3.1250001,759.58335,140.625)"
         id="g322"><text
   id="text324"
   transform="translate(-12,8.5)"><tspan
     id="tspan326"
     y="0"
     x="0"
     style="font-size:21px;font-variant:normal;font-weight:normal;writing-mode:lr-tb;fill:#262626;fill-opacity:1;fill-rule:nonzero;stroke:none;font-family:Helvetica;-inkscape-font-specification:Helvetica">3</tspan></text>

</g></g><g
       id="g328"
       transform="matrix(0.24,0,0,-0.24,0,451)"><g
         transform="matrix(-1.4e-7,-3.1250001,3.1250001,-1.4e-7,687.70835,906.24926)"
         id="g330"><text
   id="text332"
   transform="translate(-130,-6)"><tspan
     id="tspan334"
     sodipodi:role="line"
     y="0"
     x="0 15.341 23 30.659 43.446999 51.105999 57.5 70.288002 76.681999 83.075996 95.863998 107.364 113.758 118.864 138.02299 150.811 157.205 162.311 175.099 187.88699 194.28101 200.675 219.834 227.493 240.28101 253.069"
     style="font-size:23px;font-variant:normal;font-weight:normal;writing-mode:lr-tb;fill:#262626;fill-opacity:1;fill-rule:nonzero;stroke:none;font-family:Helvetica;-inkscape-font-specification:Helvetica">Error of estimation [mrad]</tspan></text>

</g></g><g
       transform="matrix(0.75000002,0,0,-0.75000002,0,451)"
       id="g336"><path
         inkscape:connector-curvature="0"
         id="path338"
         style="fill:none;stroke:#262626;stroke-width:0.66666698;stroke-linecap:butt;stroke-linejoin:round;stroke-miterlimit:10;stroke-opacity:1;stroke-dasharray:none"
         d="m 250,208.33333 1488,0" /></g><g
       transform="matrix(0.75000002,0,0,-0.75000002,0,451)"
       id="g340"><path
         inkscape:connector-curvature="0"
         id="path342"
         style="fill:#0071bc;fill-opacity:1;fill-rule:nonzero;stroke:none"
         d="m 364.46155,208.33333 28.61538,0 0,26.69533 -28.61538,0 0,-26.69533 z" /></g><g
       transform="matrix(0.75000002,0,0,-0.75000002,0,451)"
       id="g344"><path
         inkscape:connector-curvature="0"
         id="path346"
         style="fill:#0071bc;fill-opacity:1;fill-rule:nonzero;stroke:none"
         d="m 550.46155,208.33333 28.61535,0 0,31.67209 -28.61535,0 0,-31.67209 z" /></g><g
       transform="matrix(0.75000002,0,0,-0.75000002,0,451)"
       id="g348"><path
         inkscape:connector-curvature="0"
         id="path350"
         style="fill:#0071bc;fill-opacity:1;fill-rule:nonzero;stroke:none"
         d="m 736.46155,208.33333 28.61542,0 0,25.96251 -28.61542,0 0,-25.96251 z" /></g><g
       transform="matrix(0.75000002,0,0,-0.75000002,0,451)"
       id="g352"><path
         inkscape:connector-curvature="0"
         id="path354"
         style="fill:#0071bc;fill-opacity:1;fill-rule:nonzero;stroke:none"
         d="m 922.46155,208.33333 28.61542,0 0,-0.25141 -28.61542,0 0,0.25141 z" /></g><g
       transform="matrix(0.75000002,0,0,-0.75000002,0,451)"
       id="g356"><path
         inkscape:connector-curvature="0"
         id="path358"
         style="fill:#0071bc;fill-opacity:1;fill-rule:nonzero;stroke:none"
         d="m 1108.4615,208.33333 28.6154,0 0,-38.43765 -28.6154,0 0,38.43765 z" /></g><g
       transform="matrix(0.75000002,0,0,-0.75000002,0,451)"
       id="g360"><path
         inkscape:connector-curvature="0"
         id="path362"
         style="fill:#0071bc;fill-opacity:1;fill-rule:nonzero;stroke:none"
         d="m 1294.4615,208.33333 28.6154,0 0,-89.1728 -28.6154,0 0,89.1728 z" /></g><g
       transform="matrix(0.75000002,0,0,-0.75000002,0,451)"
       id="g364"><path
         inkscape:connector-curvature="0"
         id="path366"
         style="fill:#0071bc;fill-opacity:1;fill-rule:nonzero;stroke:none"
         d="m 1480.4615,208.33333 28.6154,0 0,-112.897508 -28.6154,0 0,112.897508 z" /></g><g
       transform="matrix(0.75000002,0,0,-0.75000002,0,451)"
       id="g368"><path
         inkscape:connector-curvature="0"
         id="path370"
         style="fill:#ecb01f;fill-opacity:1;fill-rule:nonzero;stroke:none"
         d="m 393.07693,208.33333 28.61539,0 0,67.59218 -28.61539,0 0,-67.59218 z" /></g><g
       transform="matrix(0.75000002,0,0,-0.75000002,0,451)"
       id="g372"><path
         inkscape:connector-curvature="0"
         id="path374"
         style="fill:#ecb01f;fill-opacity:1;fill-rule:nonzero;stroke:none"
         d="m 579.0769,208.33333 28.61542,0 0,107.90828 -28.61542,0 0,-107.90828 z" /></g><g
       transform="matrix(0.75000002,0,0,-0.75000002,0,451)"
       id="g376"><path
         inkscape:connector-curvature="0"
         id="path378"
         style="fill:#ecb01f;fill-opacity:1;fill-rule:nonzero;stroke:none"
         d="m 765.07697,208.33333 28.61535,0 0,132.97285 -28.61535,0 0,-132.97285 z" /></g><g
       transform="matrix(0.75000002,0,0,-0.75000002,0,451)"
       id="g380"><path
         inkscape:connector-curvature="0"
         id="path382"
         style="fill:#ecb01f;fill-opacity:1;fill-rule:nonzero;stroke:none"
         d="m 951.07697,208.33333 28.61535,0 0,186.34367 -28.61535,0 0,-186.34367 z" /></g><g
       transform="matrix(0.75000002,0,0,-0.75000002,0,451)"
       id="g384"><path
         inkscape:connector-curvature="0"
         id="path386"
         style="fill:#ecb01f;fill-opacity:1;fill-rule:nonzero;stroke:none"
         d="m 1137.0769,208.33333 28.6155,0 0,231.86687 -28.6155,0 0,-231.86687 z" /></g><g
       transform="matrix(0.75000002,0,0,-0.75000002,0,451)"
       id="g388"><path
         inkscape:connector-curvature="0"
         id="path390"
         style="fill:#ecb01f;fill-opacity:1;fill-rule:nonzero;stroke:none"
         d="m 1323.0769,208.33333 28.6155,0 0,281.98842 -28.6155,0 0,-281.98842 z" /></g><g
       transform="matrix(0.75000002,0,0,-0.75000002,0,451)"
       id="g392"><path
         inkscape:connector-curvature="0"
         id="path394"
         style="fill:#ecb01f;fill-opacity:1;fill-rule:nonzero;stroke:none"
         d="m 1509.0769,208.33333 28.6155,0 0,307.9622 -28.6155,0 0,-307.9622 z" /></g><g
       transform="matrix(0.75000002,0,0,-0.75000002,0,451)"
       id="g396"><path
         inkscape:connector-curvature="0"
         id="path398"
         style="fill:#76ab2f;fill-opacity:1;fill-rule:nonzero;stroke:none"
         d="m 421.69232,208.33333 28.61539,0 0,-29.37038 -28.61539,0 0,29.37038 z" /></g><g
       transform="matrix(0.75000002,0,0,-0.75000002,0,451)"
       id="g400"><path
         inkscape:connector-curvature="0"
         id="path402"
         style="fill:#76ab2f;fill-opacity:1;fill-rule:nonzero;stroke:none"
         d="m 607.69232,208.33333 28.61536,0 0,5.6962 -28.61536,0 0,-5.6962 z" /></g><g
       transform="matrix(0.75000002,0,0,-0.75000002,0,451)"
       id="g404"><path
         inkscape:connector-curvature="0"
         id="path406"
         style="fill:#76ab2f;fill-opacity:1;fill-rule:nonzero;stroke:none"
         d="m 793.69232,208.33333 28.61536,0 0,32.56289 -28.61536,0 0,-32.56289 z" /></g><g
       transform="matrix(0.75000002,0,0,-0.75000002,0,451)"
       id="g408"><path
         inkscape:connector-curvature="0"
         id="path410"
         style="fill:#76ab2f;fill-opacity:1;fill-rule:nonzero;stroke:none"
         d="m 979.69232,208.33333 28.61538,0 0,82.37303 -28.61538,0 0,-82.37303 z" /></g><g
       transform="matrix(0.75000002,0,0,-0.75000002,0,451)"
       id="g412"><path
         inkscape:connector-curvature="0"
         id="path414"
         style="fill:#76ab2f;fill-opacity:1;fill-rule:nonzero;stroke:none"
         d="m 1165.6924,208.33333 28.6152,0 0,129.87962 -28.6152,0 0,-129.87962 z" /></g><g
       transform="matrix(0.75000002,0,0,-0.75000002,0,451)"
       id="g416"><path
         inkscape:connector-curvature="0"
         id="path418"
         style="fill:#76ab2f;fill-opacity:1;fill-rule:nonzero;stroke:none"
         d="m 1351.6924,208.33333 28.6152,0 0,179.21281 -28.6152,0 0,-179.21281 z" /></g><g
       transform="matrix(0.75000002,0,0,-0.75000002,0,451)"
       id="g420"><path
         inkscape:connector-curvature="0"
         id="path422"
         style="fill:#76ab2f;fill-opacity:1;fill-rule:nonzero;stroke:none"
         d="m 1537.6924,208.33333 28.6152,0 0,203.12047 -28.6152,0 0,-203.12047 z" /></g><g
       transform="matrix(0.75000002,0,0,-0.75000002,0,451)"
       id="g424"><path
         inkscape:connector-curvature="0"
         id="path426"
         style="fill:#a1132e;fill-opacity:1;fill-rule:nonzero;stroke:none"
         d="m 450.30771,208.33333 28.61539,0 0,-7.9418 -28.61539,0 0,7.9418 z" /></g><g
       transform="matrix(0.75000002,0,0,-0.75000002,0,451)"
       id="g428"><path
         inkscape:connector-curvature="0"
         id="path430"
         style="fill:#a1132e;fill-opacity:1;fill-rule:nonzero;stroke:none"
         d="m 636.30768,208.33333 28.61535,0 0,21.60954 -28.61535,0 0,-21.60954 z" /></g><g
       transform="matrix(0.75000002,0,0,-0.75000002,0,451)"
       id="g432"><path
         inkscape:connector-curvature="0"
         id="path434"
         style="fill:#a1132e;fill-opacity:1;fill-rule:nonzero;stroke:none"
         d="m 822.30768,208.33333 28.61535,0 0,47.82835 -28.61535,0 0,-47.82835 z" /></g><g
       transform="matrix(0.75000002,0,0,-0.75000002,0,451)"
       id="g436"><path
         inkscape:connector-curvature="0"
         id="path438"
         style="fill:#a1132e;fill-opacity:1;fill-rule:nonzero;stroke:none"
         d="m 1008.3077,208.33333 28.6154,0 0,104.84096 -28.6154,0 0,-104.84096 z" /></g><g
       transform="matrix(0.75000002,0,0,-0.75000002,0,451)"
       id="g440"><path
         inkscape:connector-curvature="0"
         id="path442"
         style="fill:#a1132e;fill-opacity:1;fill-rule:nonzero;stroke:none"
         d="m 1194.3076,208.33333 28.6155,0 0,144.88975 -28.6155,0 0,-144.88975 z" /></g><g
       transform="matrix(0.75000002,0,0,-0.75000002,0,451)"
       id="g444"><path
         inkscape:connector-curvature="0"
         id="path446"
         style="fill:#a1132e;fill-opacity:1;fill-rule:nonzero;stroke:none"
         d="m 1380.3076,208.33333 28.6155,0 0,198.94655 -28.6155,0 0,-198.94655 z" /></g><g
       transform="matrix(0.75000002,0,0,-0.75000002,0,451)"
       id="g448"><path
         inkscape:connector-curvature="0"
         id="path450"
         style="fill:#a1132e;fill-opacity:1;fill-rule:nonzero;stroke:none"
         d="m 1566.3076,208.33333 28.6155,0 0,220.45317 -28.6155,0 0,-220.45317 z" /></g><g
       transform="matrix(0.75000002,0,0,-0.75000002,0,451)"
       id="g452"><path
         inkscape:connector-curvature="0"
         id="path454"
         style="fill:#d95319;fill-opacity:1;fill-rule:nonzero;stroke:none"
         d="m 478.9231,208.33333 28.61538,0 0,143.51597 -28.61538,0 0,-143.51597 z" /></g><g
       transform="matrix(0.75000002,0,0,-0.75000002,0,451)"
       id="g456"><path
         inkscape:connector-curvature="0"
         id="path458"
         style="fill:#d95319;fill-opacity:1;fill-rule:nonzero;stroke:none"
         d="m 664.92303,208.33333 28.61542,0 0,128.10222 -28.61542,0 0,-128.10222 z" /></g><g
       transform="matrix(0.75000002,0,0,-0.75000002,0,451)"
       id="g460"><path
         inkscape:connector-curvature="0"
         id="path462"
         style="fill:#d95319;fill-opacity:1;fill-rule:nonzero;stroke:none"
         d="m 850.92303,208.33333 28.61542,0 0,114.63429 -28.61542,0 0,-114.63429 z" /></g><g
       transform="matrix(0.75000002,0,0,-0.75000002,0,451)"
       id="g464"><path
         inkscape:connector-curvature="0"
         id="path466"
         style="fill:#d95319;fill-opacity:1;fill-rule:nonzero;stroke:none"
         d="m 1036.9231,208.33333 28.6154,0 0,125.68272 -28.6154,0 0,-125.68272 z" /></g><g
       transform="matrix(0.75000002,0,0,-0.75000002,0,451)"
       id="g468"><path
         inkscape:connector-curvature="0"
         id="path470"
         style="fill:#d95319;fill-opacity:1;fill-rule:nonzero;stroke:none"
         d="m 1222.9231,208.33333 28.6154,0 0,146.19847 -28.6154,0 0,-146.19847 z" /></g><g
       transform="matrix(0.75000002,0,0,-0.75000002,0,451)"
       id="g472"><path
         inkscape:connector-curvature="0"
         id="path474"
         style="fill:#d95319;fill-opacity:1;fill-rule:nonzero;stroke:none"
         d="m 1408.9231,208.33333 28.6154,0 0,215.32005 -28.6154,0 0,-215.32005 z" /></g><g
       transform="matrix(0.75000002,0,0,-0.75000002,0,451)"
       id="g476"><path
         inkscape:connector-curvature="0"
         id="path478"
         style="fill:#d95319;fill-opacity:1;fill-rule:nonzero;stroke:none"
         d="m 1594.9231,208.33333 28.6154,0 0,236.82561 -28.6154,0 0,-236.82561 z" /></g><g
       transform="matrix(0.75000002,0,0,-0.75000002,0,451)"
       id="g480"><path
         inkscape:connector-curvature="0"
         id="path482"
         style="fill:#ffffff;fill-opacity:1;fill-rule:nonzero;stroke:none"
         d="m 265,528 0,-162 318,0 0,162 -318,0 z" /></g><g
       id="g484"
       transform="matrix(0.24,0,0,-0.24,0,451)"><g
         transform="matrix(3.1250001,0,0,3.1250001,990.62502,1200.9835)"
         id="g486"><text
   id="text488"
   transform="translate(5.838,8.5)"><tspan
     id="tspan490"
     sodipodi:role="line"
     y="0"
     x="0 11.676 17.514 23.351999 35.028 46.703999 58.380001 64.218002 71.210999 82.887001 94.563004 100.401 112.077 123.753 135.429 145.929 157.605 163.44299 175.119 179.78101 185.619 191.457 203.133 210.12601 221.802 233.478 243.978"
     style="font-size:21px;font-variant:normal;font-weight:normal;writing-mode:lr-tb;fill:#000000;fill-opacity:1;fill-rule:nonzero;stroke:none;font-family:Helvetica;-inkscape-font-specification:Helvetica">0 .000 rad phase difference</tspan></text>

</g></g><g
       transform="matrix(0.75000002,0,0,-0.75000002,0,451)"
       id="g492"><path
         inkscape:connector-curvature="0"
         id="path494"
         style="fill:#0071bc;fill-opacity:1;fill-rule:nonzero;stroke:none"
         d="m 273,396.17203 0,-23.71469 40,0 0,23.71469 -40,0 z" /></g><g
       id="g496"
       transform="matrix(0.24,0,0,-0.24,0,451)"><g
         transform="matrix(3.1250001,0,0,3.1250001,990.62502,1298.9292)"
         id="g498"><text
   id="text500"
   transform="translate(5.838,8.5)"><tspan
     id="tspan502"
     sodipodi:role="line"
     y="0"
     x="0 11.676 17.514 29.190001 40.866001 52.542 58.380001 65.373001 77.049004 88.724998 94.563004 106.239 117.915 129.591 140.091 151.767 157.605 169.28101 173.94299 179.78101 185.619 197.295 204.28799 215.964 227.64 238.14"
     style="font-size:21px;font-variant:normal;font-weight:normal;writing-mode:lr-tb;fill:#000000;fill-opacity:1;fill-rule:nonzero;stroke:none;font-family:Helvetica;-inkscape-font-specification:Helvetica">0.786 rad phase difference</tspan></text>

</g></g><g
       transform="matrix(0.75000002,0,0,-0.75000002,0,451)"
       id="g504"><path
         inkscape:connector-curvature="0"
         id="path506"
         style="fill:#ecb01f;fill-opacity:1;fill-rule:nonzero;stroke:none"
         d="m 273,427.51468 0,-23.71469 40,0 0,23.71469 -40,0 z" /></g><g
       id="g508"
       transform="matrix(0.24,0,0,-0.24,0,451)"><g
         transform="matrix(3.1250001,0,0,3.1250001,990.62502,1396.875)"
         id="g510"><text
   id="text512"
   transform="translate(5.838,8.5)"><tspan
     id="tspan514"
     sodipodi:role="line"
     y="0"
     x="0 11.676 17.514 29.190001 40.866001 52.542 58.380001 65.373001 77.049004 88.724998 94.563004 106.239 117.915 129.591 140.091 151.767 157.605 169.28101 173.94299 179.78101 185.619 197.295 204.28799 215.964 227.64 238.14"
     style="font-size:21px;font-variant:normal;font-weight:normal;writing-mode:lr-tb;fill:#000000;fill-opacity:1;fill-rule:nonzero;stroke:none;font-family:Helvetica;-inkscape-font-specification:Helvetica">1.483 rad phase difference</tspan></text>

</g></g><g
       transform="matrix(0.75000002,0,0,-0.75000002,0,451)"
       id="g516"><path
         inkscape:connector-curvature="0"
         id="path518"
         style="fill:#76ab2f;fill-opacity:1;fill-rule:nonzero;stroke:none"
         d="m 273,458.85733 0,-23.71466 40,0 0,23.71466 -40,0 z" /></g><g
       id="g520"
       transform="matrix(0.24,0,0,-0.24,0,451)"><g
         transform="matrix(3.1250001,0,0,3.1250001,990.62502,1494.8208)"
         id="g522"><text
   id="text524"
   transform="translate(5.838,8.5)"><tspan
     id="tspan526"
     sodipodi:role="line"
     y="0"
     x="0 11.676 17.514 29.190001 40.866001 52.542 58.380001 65.373001 77.049004 88.724998 94.563004 106.239 117.915 129.591 140.091 151.767 157.605 169.28101 173.94299 179.78101 185.619 197.295 204.28799 215.964 227.64 238.14"
     style="font-size:21px;font-variant:normal;font-weight:normal;writing-mode:lr-tb;fill:#000000;fill-opacity:1;fill-rule:nonzero;stroke:none;font-family:Helvetica;-inkscape-font-specification:Helvetica">1.570 rad phase difference</tspan></text>

</g></g><g
       transform="matrix(0.75000002,0,0,-0.75000002,0,451)"
       id="g528"><path
         inkscape:connector-curvature="0"
         id="path530"
         style="fill:#a1132e;fill-opacity:1;fill-rule:nonzero;stroke:none"
         d="m 273,490.20001 0,-23.71469 40,0 0,23.71469 -40,0 z" /></g><g
       id="g532"
       transform="matrix(0.24,0,0,-0.24,0,451)"><g
         transform="matrix(3.1250001,0,0,3.1250001,990.62502,1592.7666)"
         id="g534"><text
   id="text536"
   transform="translate(5.838,8.5)"><tspan
     id="tspan538"
     sodipodi:role="line"
     y="0"
     x="0 11.676 17.514 29.190001 40.866001 52.542 58.380001 65.373001 77.049004 88.724998 94.563004 106.239 117.915 129.591 140.091 151.767 157.605 169.28101 173.94299 179.78101 185.619 197.295 204.28799 215.964 227.64 238.14"
     style="font-size:21px;font-variant:normal;font-weight:normal;writing-mode:lr-tb;fill:#000000;fill-opacity:1;fill-rule:nonzero;stroke:none;font-family:Helvetica;-inkscape-font-specification:Helvetica">3.141 rad phase difference</tspan></text>

</g></g><g
       transform="matrix(0.75000002,0,0,-0.75000002,0,451)"
       id="g540"><path
         inkscape:connector-curvature="0"
         id="path542"
         style="fill:#d95319;fill-opacity:1;fill-rule:nonzero;stroke:none"
         d="m 273,521.54266 0,-23.71469 40,0 0,23.71469 -40,0 z" /></g><g
       transform="matrix(0.75000002,0,0,-0.75000002,0,451)"
       id="g544"><path
         inkscape:connector-curvature="0"
         id="path546"
         style="fill:none;stroke:#262626;stroke-width:0.66666698;stroke-linecap:butt;stroke-linejoin:miter;stroke-miterlimit:10;stroke-opacity:1;stroke-dasharray:none"
         d="m 265,528 0,-162 318,0 0,162 -318,0 z" /></g></g></svg>