<?xml version="1.0" encoding="UTF-8" standalone="no"?>
<!-- Created with Inkscape (http://www.inkscape.org/) -->

<svg
   xmlns:dc="http://purl.org/dc/elements/1.1/"
   xmlns:cc="http://creativecommons.org/ns#"
   xmlns:rdf="http://www.w3.org/1999/02/22-rdf-syntax-ns#"
   xmlns:svg="http://www.w3.org/2000/svg"
   xmlns="http://www.w3.org/2000/svg"
   xmlns:sodipodi="http://sodipodi.sourceforge.net/DTD/sodipodi-0.dtd"
   xmlns:inkscape="http://www.inkscape.org/namespaces/inkscape"
   id="svg2"
   version="1.1"
   inkscape:version="0.91 r13725"
   xml:space="preserve"
   width="533.28711"
   height="879.85114"
   viewBox="0 0 533.28711 879.85114"
   sodipodi:docname="phase_double.svg"><metadata
     id="metadata8"><rdf:RDF><cc:Work
         rdf:about=""><dc:format>image/svg+xml</dc:format><dc:type
           rdf:resource="http://purl.org/dc/dcmitype/StillImage" /><dc:title></dc:title></cc:Work></rdf:RDF></metadata><defs
     id="defs6" /><sodipodi:namedview
     pagecolor="#ffffff"
     bordercolor="#666666"
     borderopacity="1"
     objecttolerance="10"
     gridtolerance="10"
     guidetolerance="10"
     inkscape:pageopacity="0"
     inkscape:pageshadow="2"
     inkscape:window-width="1366"
     inkscape:window-height="719"
     id="namedview4"
     showgrid="false"
     inkscape:zoom="1.5173221"
     inkscape:cx="485.78814"
     inkscape:cy="43.586554"
     inkscape:window-x="0"
     inkscape:window-y="27"
     inkscape:window-maximized="1"
     inkscape:current-layer="g12" /><g
     id="g10"
     inkscape:groupmode="layer"
     inkscape:label="phase_double"
     transform="matrix(1.25,0,0,-1.25,0,879.85115)"><g
       id="g12"><g
         id="g14"
         transform="matrix(1,0,0,-1,0,703.88092)"><path
           d="m 29.59,351.98 195.426,0"
           style="fill:none;stroke:#000000;stroke-width:0.80000001;stroke-linecap:butt;stroke-linejoin:miter;stroke-miterlimit:4;stroke-dasharray:none;stroke-opacity:1"
           id="path16"
           inkscape:connector-curvature="0" /></g><g
         id="g18"
         transform="matrix(1,0,0,-1,0,703.88092)"><path
           d="M 29.516,352.105 387.301,69.5"
           style="fill:none;stroke:#000000;stroke-width:0.80000001;stroke-linecap:butt;stroke-linejoin:miter;stroke-miterlimit:4;stroke-dasharray:9.6, 9.6;stroke-dashoffset:0.72000003;stroke-opacity:1"
           id="path20"
           inkscape:connector-curvature="0" /></g><g
         id="g22"
         transform="matrix(1,0,0,-1,0,703.88092)"><path
           d="M 225.383,351.977 387.449,69.457"
           style="fill:none;stroke:#000000;stroke-width:0.81923002;stroke-linecap:butt;stroke-linejoin:miter;stroke-miterlimit:4;stroke-dasharray:9.830757, 9.830757;stroke-dashoffset:4.01422596;stroke-opacity:1"
           id="path24"
           inkscape:connector-curvature="0" /></g><g
         id="g26"
         transform="matrix(1,0,0,-1,0,703.88092)"><path
           d="m 29.445,360.395 0,8"
           style="fill:none;stroke:#215f97;stroke-width:0.80000001;stroke-linecap:butt;stroke-linejoin:miter;stroke-miterlimit:4;stroke-dasharray:none;stroke-opacity:1"
           id="path28"
           inkscape:connector-curvature="0" /></g><g
         id="g30"
         transform="matrix(1,0,0,-1,0,703.88092)"><path
           d="m 224.875,360.395 0,8"
           style="fill:none;stroke:#215f97;stroke-width:0.80000001;stroke-linecap:butt;stroke-linejoin:miter;stroke-miterlimit:4;stroke-dasharray:none;stroke-opacity:1"
           id="path32"
           inkscape:connector-curvature="0" /></g><g
         id="g34"
         transform="matrix(1,0,0,-1,0,703.88092)"><path
           d="m 31.203,351.98 c 0,0.895 -0.723,1.618 -1.613,1.618 -0.895,0 -1.617,-0.723 -1.617,-1.618 0,-0.89 0.722,-1.617 1.617,-1.617 0.89,0 1.613,0.727 1.613,1.617 z"
           style="fill:#000000;fill-opacity:1;fill-rule:nonzero;stroke:#000000;stroke-width:0.80000001;stroke-linecap:butt;stroke-linejoin:miter;stroke-miterlimit:4;stroke-dasharray:none;stroke-opacity:1"
           id="path36"
           inkscape:connector-curvature="0" /></g><text
         transform="matrix(1,0,0,-1,2.499995,337.32813)"
         style="font-variant:normal;font-weight:normal;font-size:24px;font-family:'Times New Roman';-inkscape-font-specification:TimesNewRomanPSMT;writing-mode:lr-tb;fill:#000000;fill-opacity:1;fill-rule:nonzero;stroke:none"
         id="text38"><tspan
           x="0"
           y="0"
           id="tspan40"
           style="font-style:italic">S</tspan></text>
<text
         transform="matrix(1,0,0,-1,15.85937,332.52813)"
         style="font-variant:normal;font-weight:normal;font-size:15.60021973px;font-family:'Times New Roman';-inkscape-font-specification:TimesNewRomanPSMT;writing-mode:lr-tb;fill:#000000;fill-opacity:1;fill-rule:nonzero;stroke:none"
         id="text42"><tspan
           x="0"
           y="0"
           id="tspan44"
           style="font-style:italic">1</tspan></text>
<g
         id="g46"
         transform="matrix(1,0,0,-1,0,703.88092)"><path
           d="M 21.242,345.52 143.883,249.371"
           style="fill:none;stroke:#215f97;stroke-width:0.80000001;stroke-linecap:butt;stroke-linejoin:miter;stroke-miterlimit:4;stroke-dasharray:none;stroke-opacity:1"
           id="path48"
           inkscape:connector-curvature="0" /></g><g
         id="g50"
         transform="matrix(1,0,0,-1,0,703.88092)"><path
           d="m 18.82,342.953 4.633,5.606"
           style="fill:none;stroke:#215f97;stroke-width:0.80000001;stroke-linecap:butt;stroke-linejoin:miter;stroke-miterlimit:4;stroke-dasharray:none;stroke-opacity:1"
           id="path52"
           inkscape:connector-curvature="0" /></g><text
         transform="matrix(1,0,0,-1,62.083259,415.02974)"
         style="font-variant:normal;font-weight:normal;font-size:24px;font-family:'Times New Roman';-inkscape-font-specification:TimesNewRomanPSMT;writing-mode:lr-tb;fill:#215f97;fill-opacity:1;fill-rule:nonzero;stroke:none"
         id="text54"><tspan
           x="0"
           y="0"
           id="tspan56"
           style="font-style:italic">y</tspan></text>
<g
         id="g58"
         transform="matrix(1,0,0,-1,0,703.88092)"><path
           d="m 226.992,351.98 c 0,0.895 -0.726,1.618 -1.617,1.618 -0.895,0 -1.617,-0.723 -1.617,-1.618 0,-0.89 0.722,-1.617 1.617,-1.617 0.891,0 1.617,0.727 1.617,1.617 z"
           style="fill:#000000;fill-opacity:1;fill-rule:nonzero;stroke:#000000;stroke-width:0.80000001;stroke-linecap:butt;stroke-linejoin:miter;stroke-miterlimit:4;stroke-dasharray:none;stroke-opacity:1"
           id="path60"
           inkscape:connector-curvature="0" /></g><text
         transform="matrix(1,0,0,-1,228.83919,335.50987)"
         style="font-variant:normal;font-weight:normal;font-size:24px;font-family:'Times New Roman';-inkscape-font-specification:TimesNewRomanPSMT;writing-mode:lr-tb;fill:#000000;fill-opacity:1;fill-rule:nonzero;stroke:none"
         id="text62"><tspan
           x="0"
           y="0"
           id="tspan64"
           style="font-style:italic">S</tspan></text>
<text
         transform="matrix(1,0,0,-1,242.19856,330.70987)"
         style="font-variant:normal;font-weight:normal;font-size:15.60021973px;font-family:'Times New Roman';-inkscape-font-specification:TimesNewRomanPSMT;writing-mode:lr-tb;fill:#000000;fill-opacity:1;fill-rule:nonzero;stroke:none"
         id="text66"><tspan
           x="0"
           y="0"
           id="tspan68"
           style="font-style:italic">2</tspan></text>
<g
         id="g70"
         transform="matrix(1,0,0,-1,0,703.88092)"><path
           d="m 127.301,351.523 0,-307.492"
           style="fill:none;stroke:#000000;stroke-width:0.56;stroke-linecap:butt;stroke-linejoin:miter;stroke-miterlimit:4;stroke-dasharray:3.36, 3.36;stroke-dashoffset:0;stroke-opacity:1"
           id="path72"
           inkscape:connector-curvature="0" /></g><g
         id="g74"
         transform="matrix(1,0,0,-1,0,703.88092)"><path
           d="M 225.453,351.977 150.273,256.82"
           style="fill:none;stroke:#000000;stroke-width:0.80000001;stroke-linecap:butt;stroke-linejoin:miter;stroke-miterlimit:4;stroke-dasharray:none;stroke-opacity:1"
           id="path76"
           inkscape:connector-curvature="0" /></g><g
         id="g78"
         transform="matrix(0.794292,-0.997946,-1,-0.791704,0,703.88092)"><path
           d="m 230.937,33.451 8.478,0 -0.001,8.389 -8.479,0 0.002,-8.389 z"
           style="fill:none;stroke:#000000;stroke-width:0.627226;stroke-linecap:butt;stroke-linejoin:miter;stroke-miterlimit:4;stroke-dasharray:none;stroke-opacity:1"
           id="path80"
           inkscape:connector-curvature="0" /></g><g
         id="g82"
         transform="matrix(1,0,0,-1,0,703.88092)"><path
           d="M 127.32,352.105 384.234,72.949"
           style="fill:none;stroke:#000000;stroke-width:0.80000001;stroke-linecap:butt;stroke-linejoin:miter;stroke-miterlimit:4;stroke-dasharray:9.6, 9.6;stroke-dashoffset:0.72000003;stroke-opacity:1"
           id="path84"
           inkscape:connector-curvature="0" /></g><g
         id="g86"
         transform="matrix(1,0,0,-1,0,703.88092)"><path
           d="m 127.254,323.051 c 12.258,0.078 17.601,10.164 17.601,10.164"
           style="fill:none;stroke:#e7716c;stroke-width:0.80000001;stroke-linecap:butt;stroke-linejoin:miter;stroke-miterlimit:4;stroke-dasharray:none;stroke-opacity:1"
           id="path88"
           inkscape:connector-curvature="0" /></g><text
         transform="matrix(1,0,0,-1,135.10423,382.69634)"
         style="font-variant:normal;font-weight:normal;font-size:24px;font-family:'Times New Roman';-inkscape-font-specification:TimesNewRomanPSMT;writing-mode:lr-tb;fill:#e7716c;fill-opacity:1;fill-rule:nonzero;stroke:none"
         id="text90"><tspan
           x="0"
           y="0"
           id="tspan92"
           style="font-style:italic">θ</tspan></text>
<g
         id="g94"
         transform="matrix(1,0,0,-1,0,703.88092)"><path
           d="m 383.652,66.871 c 0,2.625 -2.129,4.75 -4.75,4.75 -2.625,0 -4.754,-2.125 -4.754,-4.75 0,-2.625 2.129,-4.75 4.754,-4.75 2.621,0 4.75,2.125 4.75,4.75 z"
           style="fill:none;stroke:#000000;stroke-width:0.56;stroke-linecap:butt;stroke-linejoin:miter;stroke-miterlimit:4;stroke-dasharray:none;stroke-opacity:1"
           id="path96"
           inkscape:connector-curvature="0" /></g><g
         id="g98"
         transform="matrix(1,0,0,-1,0,703.88092)"><path
           d="m 383.652,33.309 c 0,2.625 -2.129,4.75 -4.75,4.75 -2.625,0 -4.754,-2.125 -4.754,-4.75 0,-2.625 2.129,-4.75 4.754,-4.75 2.621,0 4.75,2.125 4.75,4.75 z"
           style="fill:none;stroke:#000000;stroke-width:0.56;stroke-linecap:butt;stroke-linejoin:miter;stroke-miterlimit:4;stroke-dasharray:none;stroke-opacity:1"
           id="path100"
           inkscape:connector-curvature="0" /></g><g
         id="g102"
         transform="matrix(1,0,0,-1,0,703.88092)"><path
           d="m 383.117,35.531 c 8.274,2.989 7.738,11.953 7.738,11.953 l 0,1.301"
           style="fill:none;stroke:#000000;stroke-width:0.80000001;stroke-linecap:butt;stroke-linejoin:miter;stroke-miterlimit:4;stroke-dasharray:none;stroke-opacity:1"
           id="path104"
           inkscape:connector-curvature="0" /></g><g
         id="g106"
         transform="matrix(1,0,0,-1,0,703.88092)"><path
           d="m 409.707,33.309 c 0,2.625 -2.129,4.75 -4.754,4.75 -2.621,0 -4.75,-2.125 -4.75,-4.75 0,-2.625 2.129,-4.75 4.75,-4.75 2.625,0 4.754,2.125 4.754,4.75 z"
           style="fill:none;stroke:#000000;stroke-width:0.56;stroke-linecap:butt;stroke-linejoin:miter;stroke-miterlimit:4;stroke-dasharray:none;stroke-opacity:1"
           id="path108"
           inkscape:connector-curvature="0" /></g><g
         id="g110"
         transform="matrix(1,0,0,-1,0,703.88092)"><path
           d="m 400.781,35.531 c -8.277,2.989 -7.738,11.953 -7.738,11.953 l 0,1.301"
           style="fill:none;stroke:#000000;stroke-width:0.80000001;stroke-linecap:butt;stroke-linejoin:miter;stroke-miterlimit:4;stroke-dasharray:none;stroke-opacity:1"
           id="path112"
           inkscape:connector-curvature="0" /></g><g
         id="g114"
         transform="matrix(1,0,0,-1,0,703.88092)"><path
           d="m 383.652,66.871 c 0,2.625 -2.129,4.75 -4.75,4.75 -2.625,0 -4.754,-2.125 -4.754,-4.75 0,-2.625 2.129,-4.75 4.754,-4.75 2.621,0 4.75,2.125 4.75,4.75 z"
           style="fill:none;stroke:#000000;stroke-width:0.56;stroke-linecap:butt;stroke-linejoin:miter;stroke-miterlimit:4;stroke-dasharray:none;stroke-opacity:1"
           id="path116"
           inkscape:connector-curvature="0" /></g><g
         id="g118"
         transform="matrix(1,0,0,-1,0,703.88092)"><path
           d="m 383.117,64.348 c 8.274,-2.989 7.738,-11.953 7.738,-11.953 l 0,-1.301"
           style="fill:none;stroke:#000000;stroke-width:0.80000001;stroke-linecap:butt;stroke-linejoin:miter;stroke-miterlimit:4;stroke-dasharray:none;stroke-opacity:1"
           id="path120"
           inkscape:connector-curvature="0" /></g><g
         id="g122"
         transform="matrix(1,0,0,-1,0,703.88092)"><path
           d="m 409.707,66.871 c 0,2.625 -2.129,4.75 -4.754,4.75 -2.621,0 -4.75,-2.125 -4.75,-4.75 0,-2.625 2.129,-4.75 4.75,-4.75 2.625,0 4.754,2.125 4.754,4.75 z"
           style="fill:none;stroke:#000000;stroke-width:0.56;stroke-linecap:butt;stroke-linejoin:miter;stroke-miterlimit:4;stroke-dasharray:none;stroke-opacity:1"
           id="path124"
           inkscape:connector-curvature="0" /></g><g
         id="g126"
         transform="matrix(1,0,0,-1,0,703.88092)"><path
           d="m 400.781,64.348 c -8.277,-2.989 -7.738,-11.953 -7.738,-11.953 l 0,-1.301"
           style="fill:none;stroke:#000000;stroke-width:0.80000001;stroke-linecap:butt;stroke-linejoin:miter;stroke-miterlimit:4;stroke-dasharray:none;stroke-opacity:1"
           id="path128"
           inkscape:connector-curvature="0" /></g><g
         id="g130"
         transform="matrix(1,0,0,-1,0,703.88092)"><path
           d="m 391.457,38.895 1.32,0 c 1.465,0 2.641,1.179 2.641,2.644 l 0,15.641 c 0,1.461 -1.176,2.64 -2.641,2.64 l -1.32,0 c -1.461,0 -2.641,-1.179 -2.641,-2.64 l 0,-15.641 c 0,-1.465 1.18,-2.644 2.641,-2.644 z"
           style="fill:#000000;fill-opacity:1;fill-rule:nonzero;stroke:#000000;stroke-width:1.28224599;stroke-linecap:butt;stroke-linejoin:round;stroke-miterlimit:4;stroke-dasharray:none;stroke-opacity:1"
           id="path132"
           inkscape:connector-curvature="0" /></g><text
         transform="matrix(1,0,0,-1,363.02525,683.9903)"
         style="font-variant:normal;font-weight:normal;font-size:24px;font-family:'Times New Roman';-inkscape-font-specification:TimesNewRomanPSMT;writing-mode:lr-tb;fill:#000000;fill-opacity:1;fill-rule:nonzero;stroke:none"
         id="text134"><tspan
           x="0 17.327999 25.32 37.32 49.32"
           y="0"
           sodipodi:role="line"
           id="tspan136">Drone</tspan></text>
<g
         id="g138"
         transform="matrix(1,0,0,-1,0,703.88092)"><path
           d="m 141.84,246.52 4.629,5.609"
           style="fill:none;stroke:#215f97;stroke-width:0.80000001;stroke-linecap:butt;stroke-linejoin:miter;stroke-miterlimit:4;stroke-dasharray:none;stroke-opacity:1"
           id="path140"
           inkscape:connector-curvature="0" /></g><g
         id="g142"
         transform="matrix(1,0,0,-1,0,703.88092)"><path
           d="m 388,71.75 c 0,0.895 -0.727,1.617 -1.617,1.617 -0.895,0 -1.617,-0.722 -1.617,-1.617 0,-0.891 0.722,-1.617 1.617,-1.617 0.89,0 1.617,0.726 1.617,1.617 z"
           style="fill:#000000;fill-opacity:1;fill-rule:nonzero;stroke:#000000;stroke-width:0.80000001;stroke-linecap:butt;stroke-linejoin:miter;stroke-miterlimit:4;stroke-dasharray:none;stroke-opacity:1"
           id="path144"
           inkscape:connector-curvature="0" /></g><text
         transform="matrix(1,0,0,-1,391.80611,611.85083)"
         style="font-variant:normal;font-weight:normal;font-size:24px;font-family:'Times New Roman';-inkscape-font-specification:TimesNewRomanPSMT;writing-mode:lr-tb;fill:#000000;fill-opacity:1;fill-rule:nonzero;stroke:none"
         id="text146"><tspan
           x="0"
           y="0"
           id="tspan148"
           style="font-style:italic">P</tspan></text>
<text
         transform="matrix(1,0,0,-1,405.16548,607.05083)"
         style="font-variant:normal;font-weight:normal;font-size:15.60021973px;font-family:'Times New Roman';-inkscape-font-specification:TimesNewRomanPSMT;writing-mode:lr-tb;fill:#000000;fill-opacity:1;fill-rule:nonzero;stroke:none"
         id="text150"><tspan
           x="0"
           y="0"
           id="tspan152"
           style="font-style:italic">1</tspan></text>
<g
         id="g154"
         transform="matrix(1,0,0,-1,0,703.88092)"><path
           d="m 152.125,256.52 c 0,0.894 -0.723,1.617 -1.617,1.617 -0.891,0 -1.613,-0.723 -1.613,-1.617 0,-0.891 0.722,-1.614 1.613,-1.614 0.894,0 1.617,0.723 1.617,1.614 z"
           style="fill:#000000;fill-opacity:1;fill-rule:nonzero;stroke:#000000;stroke-width:0.80000001;stroke-linecap:butt;stroke-linejoin:miter;stroke-miterlimit:4;stroke-dasharray:none;stroke-opacity:1"
           id="path156"
           inkscape:connector-curvature="0" /></g><g
         id="g158"
         transform="matrix(1,0,0,-1,0,703.88092)"><path
           d="m 29.859,351.898 195.43,0"
           style="fill:none;stroke:#000000;stroke-width:0.80000001;stroke-linecap:butt;stroke-linejoin:miter;stroke-miterlimit:4;stroke-dasharray:none;stroke-opacity:1"
           id="path160"
           inkscape:connector-curvature="0" /></g><g
         id="g162"
         transform="matrix(1,0,0,-1,0,703.88092)"><path
           d="M 29.789,351.773 387.574,634.379"
           style="fill:none;stroke:#000000;stroke-width:0.80000001;stroke-linecap:butt;stroke-linejoin:miter;stroke-miterlimit:4;stroke-dasharray:9.6, 9.6;stroke-dashoffset:0.72000003;stroke-opacity:1"
           id="path164"
           inkscape:connector-curvature="0" /></g><g
         id="g166"
         transform="matrix(1,0,0,-1,0,703.88092)"><path
           d="m 225.656,351.902 162.067,282.52"
           style="fill:none;stroke:#000000;stroke-width:0.81923002;stroke-linecap:butt;stroke-linejoin:miter;stroke-miterlimit:4;stroke-dasharray:9.830758, 9.830758;stroke-dashoffset:4.01422596;stroke-opacity:1"
           id="path168"
           inkscape:connector-curvature="0" /></g><g
         id="g170"
         transform="matrix(1,0,0,-1,0,703.88092)"><path
           d="m 29.719,343.484 0,-8"
           style="fill:none;stroke:#215f97;stroke-width:0.80000001;stroke-linecap:butt;stroke-linejoin:miter;stroke-miterlimit:4;stroke-dasharray:none;stroke-opacity:1"
           id="path172"
           inkscape:connector-curvature="0" /></g><g
         id="g174"
         transform="matrix(1,0,0,-1,0,703.88092)"><path
           d="m 225.145,343.484 0,-8"
           style="fill:none;stroke:#215f97;stroke-width:0.80000001;stroke-linecap:butt;stroke-linejoin:miter;stroke-miterlimit:4;stroke-dasharray:none;stroke-opacity:1"
           id="path176"
           inkscape:connector-curvature="0" /></g><text
         transform="matrix(1,0,0,-1,95.963141,358.88223)"
         style="font-variant:normal;font-weight:normal;font-size:24px;font-family:'Times New Roman';-inkscape-font-specification:TimesNewRomanPSMT;writing-mode:lr-tb;fill:#215f97;fill-opacity:1;fill-rule:nonzero;stroke:none"
         id="text178"><tspan
           x="0"
           y="0"
           id="tspan180"
           style="font-style:italic">x</tspan></text>
<g
         id="g182"
         transform="matrix(1,0,0,-1,0,703.88092)"><path
           d="m 21.512,358.363 122.64,96.145"
           style="fill:none;stroke:#215f97;stroke-width:0.80000001;stroke-linecap:butt;stroke-linejoin:miter;stroke-miterlimit:4;stroke-dasharray:none;stroke-opacity:1"
           id="path184"
           inkscape:connector-curvature="0" /></g><g
         id="g186"
         transform="matrix(1,0,0,-1,0,703.88092)"><path
           d="m 19.094,360.93 4.629,-5.61"
           style="fill:none;stroke:#215f97;stroke-width:0.80000001;stroke-linecap:butt;stroke-linejoin:miter;stroke-miterlimit:4;stroke-dasharray:none;stroke-opacity:1"
           id="path188"
           inkscape:connector-curvature="0" /></g><text
         transform="matrix(1,0,0,-1,62.355671,283.29658)"
         style="font-variant:normal;font-weight:normal;font-size:24px;font-family:'Times New Roman';-inkscape-font-specification:TimesNewRomanPSMT;writing-mode:lr-tb;fill:#215f97;fill-opacity:1;fill-rule:nonzero;stroke:none"
         id="text190"><tspan
           x="0"
           y="0"
           id="tspan192"
           style="font-style:italic">y</tspan></text>
<g
         id="g194"
         transform="matrix(1,0,0,-1,0,703.88092)"><path
           d="m 127.574,352.359 0,307.489"
           style="fill:none;stroke:#000000;stroke-width:0.56;stroke-linecap:butt;stroke-linejoin:miter;stroke-miterlimit:4;stroke-dasharray:3.36, 3.36;stroke-dashoffset:0;stroke-opacity:1"
           id="path196"
           inkscape:connector-curvature="0" /></g><g
         id="g198"
         transform="matrix(1,0,0,-1,0,703.88092)"><path
           d="m 225.727,351.902 -75.18,95.157"
           style="fill:none;stroke:#000000;stroke-width:0.80000001;stroke-linecap:butt;stroke-linejoin:miter;stroke-miterlimit:4;stroke-dasharray:none;stroke-opacity:1"
           id="path200"
           inkscape:connector-curvature="0" /></g><g
         id="g202"
         transform="matrix(0.794292,0.997946,-1,0.791704,0,703.88092)"><path
           d="m -201.614,-310.391 8.48,-0.002 10e-4,8.391 -8.478,0.001 -0.003,-8.39 z"
           style="fill:none;stroke:#000000;stroke-width:0.627226;stroke-linecap:butt;stroke-linejoin:miter;stroke-miterlimit:4;stroke-dasharray:none;stroke-opacity:1"
           id="path204"
           inkscape:connector-curvature="0" /></g><g
         id="g206"
         transform="matrix(1,0,0,-1,0,703.88092)"><path
           d="M 127.594,351.773 384.508,630.934"
           style="fill:none;stroke:#000000;stroke-width:0.80000001;stroke-linecap:butt;stroke-linejoin:miter;stroke-miterlimit:4;stroke-dasharray:9.6, 9.6;stroke-dashoffset:0.72000003;stroke-opacity:1"
           id="path208"
           inkscape:connector-curvature="0" /></g><g
         id="g210"
         transform="matrix(1,0,0,-1,0,703.88092)"><path
           d="m 127.523,380.828 c 12.262,-0.074 17.602,-10.16 17.602,-10.16"
           style="fill:none;stroke:#e7716c;stroke-width:0.80000001;stroke-linecap:butt;stroke-linejoin:miter;stroke-miterlimit:4;stroke-dasharray:none;stroke-opacity:1"
           id="path212"
           inkscape:connector-curvature="0" /></g><text
         transform="matrix(1,0,0,-1,135.37662,304.87217)"
         style="font-variant:normal;font-weight:normal;font-size:24px;font-family:'Times New Roman';-inkscape-font-specification:TimesNewRomanPSMT;writing-mode:lr-tb;fill:#e7716c;fill-opacity:1;fill-rule:nonzero;stroke:none"
         id="text214"><tspan
           x="0"
           y="0"
           id="tspan216"
           style="font-style:italic">θ</tspan></text>
<g
         id="g218"
         transform="matrix(1,0,0,-1,0,703.88092)"><path
           d="m 383.926,694.852 c 0,2.621 -2.129,4.75 -4.754,4.75 -2.621,0 -4.75,-2.129 -4.75,-4.75 0,-2.625 2.129,-4.754 4.75,-4.754 2.625,0 4.754,2.129 4.754,4.754 z"
           style="fill:none;stroke:#000000;stroke-width:0.56;stroke-linecap:butt;stroke-linejoin:miter;stroke-miterlimit:4;stroke-dasharray:none;stroke-opacity:1"
           id="path220"
           inkscape:connector-curvature="0" /></g><g
         id="g222"
         transform="matrix(1,0,0,-1,0,703.88092)"><path
           d="m 383.926,661.285 c 0,2.625 -2.129,4.754 -4.754,4.754 -2.621,0 -4.75,-2.129 -4.75,-4.754 0,-2.621 2.129,-4.75 4.75,-4.75 2.625,0 4.754,2.129 4.754,4.75 z"
           style="fill:none;stroke:#000000;stroke-width:0.56;stroke-linecap:butt;stroke-linejoin:miter;stroke-miterlimit:4;stroke-dasharray:none;stroke-opacity:1"
           id="path224"
           inkscape:connector-curvature="0" /></g><g
         id="g226"
         transform="matrix(1,0,0,-1,0,703.88092)"><path
           d="m 383.387,663.508 c 8.277,2.988 7.742,11.957 7.742,11.957 l 0,1.301"
           style="fill:none;stroke:#000000;stroke-width:0.80000001;stroke-linecap:butt;stroke-linejoin:miter;stroke-miterlimit:4;stroke-dasharray:none;stroke-opacity:1"
           id="path228"
           inkscape:connector-curvature="0" /></g><g
         id="g230"
         transform="matrix(1,0,0,-1,0,703.88092)"><path
           d="m 409.977,661.285 c 0,2.625 -2.125,4.754 -4.75,4.754 -2.625,0 -4.75,-2.129 -4.75,-4.754 0,-2.621 2.125,-4.75 4.75,-4.75 2.625,0 4.75,2.129 4.75,4.75 z"
           style="fill:none;stroke:#000000;stroke-width:0.56;stroke-linecap:butt;stroke-linejoin:miter;stroke-miterlimit:4;stroke-dasharray:none;stroke-opacity:1"
           id="path232"
           inkscape:connector-curvature="0" /></g><g
         id="g234"
         transform="matrix(1,0,0,-1,0,703.88092)"><path
           d="m 401.055,663.508 c -8.278,2.988 -7.742,11.957 -7.742,11.957 l 0,1.301"
           style="fill:none;stroke:#000000;stroke-width:0.80000001;stroke-linecap:butt;stroke-linejoin:miter;stroke-miterlimit:4;stroke-dasharray:none;stroke-opacity:1"
           id="path236"
           inkscape:connector-curvature="0" /></g><g
         id="g238"
         transform="matrix(1,0,0,-1,0,703.88092)"><path
           d="m 383.926,694.852 c 0,2.621 -2.129,4.75 -4.754,4.75 -2.621,0 -4.75,-2.129 -4.75,-4.75 0,-2.625 2.129,-4.754 4.75,-4.754 2.625,0 4.754,2.129 4.754,4.754 z"
           style="fill:none;stroke:#000000;stroke-width:0.56;stroke-linecap:butt;stroke-linejoin:miter;stroke-miterlimit:4;stroke-dasharray:none;stroke-opacity:1"
           id="path240"
           inkscape:connector-curvature="0" /></g><g
         id="g242"
         transform="matrix(1,0,0,-1,0,703.88092)"><path
           d="m 383.387,692.328 c 8.277,-2.988 7.742,-11.953 7.742,-11.953 l 0,-1.305"
           style="fill:none;stroke:#000000;stroke-width:0.80000001;stroke-linecap:butt;stroke-linejoin:miter;stroke-miterlimit:4;stroke-dasharray:none;stroke-opacity:1"
           id="path244"
           inkscape:connector-curvature="0" /></g><g
         id="g246"
         transform="matrix(1,0,0,-1,0,703.88092)"><path
           d="m 409.977,694.852 c 0,2.621 -2.125,4.75 -4.75,4.75 -2.625,0 -4.75,-2.129 -4.75,-4.75 0,-2.625 2.125,-4.754 4.75,-4.754 2.625,0 4.75,2.129 4.75,4.754 z"
           style="fill:none;stroke:#000000;stroke-width:0.56;stroke-linecap:butt;stroke-linejoin:miter;stroke-miterlimit:4;stroke-dasharray:none;stroke-opacity:1"
           id="path248"
           inkscape:connector-curvature="0" /></g><g
         id="g250"
         transform="matrix(1,0,0,-1,0,703.88092)"><path
           d="m 401.055,692.328 c -8.278,-2.988 -7.742,-11.953 -7.742,-11.953 l 0,-1.305"
           style="fill:none;stroke:#000000;stroke-width:0.80000001;stroke-linecap:butt;stroke-linejoin:miter;stroke-miterlimit:4;stroke-dasharray:none;stroke-opacity:1"
           id="path252"
           inkscape:connector-curvature="0" /></g><g
         id="g254"
         transform="matrix(1,0,0,-1,0,703.88092)"><path
           d="m 391.73,666.875 1.321,0 c 1.461,0 2.64,1.176 2.64,2.641 l 0,15.64 c 0,1.465 -1.179,2.645 -2.64,2.645 l -1.321,0 c -1.464,0 -2.64,-1.18 -2.64,-2.645 l 0,-15.64 c 0,-1.465 1.176,-2.641 2.64,-2.641 z"
           style="fill:#000000;fill-opacity:1;fill-rule:nonzero;stroke:#000000;stroke-width:1.28224599;stroke-linecap:butt;stroke-linejoin:round;stroke-miterlimit:4;stroke-dasharray:none;stroke-opacity:1"
           id="path256"
           inkscape:connector-curvature="0" /></g><text
         transform="matrix(1,0,0,-1,363.29764,56.011718)"
         style="font-variant:normal;font-weight:normal;font-size:24px;font-family:'Times New Roman';-inkscape-font-specification:TimesNewRomanPSMT;writing-mode:lr-tb;fill:#000000;fill-opacity:1;fill-rule:nonzero;stroke:none"
         id="text258"><tspan
           x="0 17.327999 25.32 37.32 49.32"
           y="0"
           sodipodi:role="line"
           id="tspan260">Drone</tspan></text>
<g
         id="g262"
         transform="matrix(1,0,0,-1,0,703.88092)"><path
           d="m 142.109,457.359 4.633,-5.605"
           style="fill:none;stroke:#215f97;stroke-width:0.80000001;stroke-linecap:butt;stroke-linejoin:miter;stroke-miterlimit:4;stroke-dasharray:none;stroke-opacity:1"
           id="path264"
           inkscape:connector-curvature="0" /></g><g
         id="g266"
         transform="translate(0,703.88092)"><path
           d="m 388.27,-632.129 c 0,0.891 -0.723,1.613 -1.614,1.613 -0.894,0 -1.617,-0.722 -1.617,-1.613 0,-0.894 0.723,-1.617 1.617,-1.617 0.891,0 1.614,0.723 1.614,1.617 z"
           style="fill:#000000;fill-opacity:1;fill-rule:nonzero;stroke:#000000;stroke-width:0.80000001;stroke-linecap:butt;stroke-linejoin:miter;stroke-miterlimit:4;stroke-dasharray:none;stroke-opacity:1"
           id="path268"
           inkscape:connector-curvature="0" /></g><text
         transform="matrix(1,0,0,-1,392.07852,76.139555)"
         style="font-variant:normal;font-weight:normal;font-size:24px;font-family:'Times New Roman';-inkscape-font-specification:TimesNewRomanPSMT;writing-mode:lr-tb;fill:#000000;fill-opacity:1;fill-rule:nonzero;stroke:none"
         id="text270"><tspan
           x="0"
           y="0"
           id="tspan272"
           style="font-style:italic">P</tspan></text>
<text
         transform="matrix(1,0,0,-1,405.43789,71.339555)"
         style="font-variant:normal;font-weight:normal;font-size:15.60021973px;font-family:'Times New Roman';-inkscape-font-specification:TimesNewRomanPSMT;writing-mode:lr-tb;fill:#000000;fill-opacity:1;fill-rule:nonzero;stroke:none"
         id="text274"><tspan
           x="0"
           y="0"
           id="tspan276"
           style="font-style:italic">2</tspan></text>
<g
         id="g278"
         transform="translate(0,703.88092)"><path
           d="m 152.398,-447.359 c 0,0.89 -0.722,1.617 -1.617,1.617 -0.89,0 -1.617,-0.727 -1.617,-1.617 0,-0.895 0.727,-1.618 1.617,-1.618 0.895,0 1.617,0.723 1.617,1.618 z"
           style="fill:#000000;fill-opacity:1;fill-rule:nonzero;stroke:#000000;stroke-width:0.80000001;stroke-linecap:butt;stroke-linejoin:miter;stroke-miterlimit:4;stroke-dasharray:none;stroke-opacity:1"
           id="path280"
           inkscape:connector-curvature="0" /></g></g></g></svg>