<?xml version="1.0" encoding="UTF-8" standalone="no"?>
<!-- Created with Inkscape (http://www.inkscape.org/) -->

<svg
   xmlns:dc="http://purl.org/dc/elements/1.1/"
   xmlns:cc="http://creativecommons.org/ns#"
   xmlns:rdf="http://www.w3.org/1999/02/22-rdf-syntax-ns#"
   xmlns:svg="http://www.w3.org/2000/svg"
   xmlns="http://www.w3.org/2000/svg"
   xmlns:sodipodi="http://sodipodi.sourceforge.net/DTD/sodipodi-0.dtd"
   xmlns:inkscape="http://www.inkscape.org/namespaces/inkscape"
   id="svg2"
   version="1.1"
   inkscape:version="0.91 r13725"
   xml:space="preserve"
   width="558.3797"
   height="505.9537"
   viewBox="0 0 558.3797 505.9537"
   sodipodi:docname="Phase_drawing.svg"><metadata
     id="metadata8"><rdf:RDF><cc:Work
         rdf:about=""><dc:format>image/svg+xml</dc:format><dc:type
           rdf:resource="http://purl.org/dc/dcmitype/StillImage" /><dc:title></dc:title></cc:Work></rdf:RDF></metadata><defs
     id="defs6" /><sodipodi:namedview
     pagecolor="#ffffff"
     bordercolor="#666666"
     borderopacity="1"
     objecttolerance="10"
     gridtolerance="10"
     guidetolerance="10"
     inkscape:pageopacity="0"
     inkscape:pageshadow="2"
     inkscape:window-width="1366"
     inkscape:window-height="719"
     id="namedview4"
     showgrid="false"
     inkscape:zoom="1.3193081"
     inkscape:cx="255.38185"
     inkscape:cy="183.72061"
     inkscape:window-x="0"
     inkscape:window-y="27"
     inkscape:window-maximized="1"
     inkscape:current-layer="g12" /><g
     id="g10"
     inkscape:groupmode="layer"
     inkscape:label="Phase_drawing"
     transform="matrix(1.25,0,0,-1.25,0,505.95371)"><g
       id="g12"><g
         id="g14"
         transform="matrix(1,0,0,-1,0,404.76297)"><path
           d="m 39.762,362.156 195.429,0"
           style="fill:none;stroke:#000000;stroke-width:0.80000001;stroke-linecap:butt;stroke-linejoin:miter;stroke-miterlimit:4;stroke-dasharray:none;stroke-opacity:1"
           id="path16"
           inkscape:connector-curvature="0" /></g><g
         id="g18"
         transform="matrix(1,0,0,-1,0,404.76297)"><path
           d="M 39.691,362.281 397.473,79.672"
           style="fill:none;stroke:#000000;stroke-width:0.80000001;stroke-linecap:butt;stroke-linejoin:miter;stroke-miterlimit:4;stroke-dasharray:9.6, 9.6;stroke-dashoffset:0.72000003;stroke-opacity:1"
           id="path20"
           inkscape:connector-curvature="0" /></g><g
         id="g22"
         transform="matrix(1,0,0,-1,0,404.76297)"><path
           d="M 235.559,362.148 397.621,79.633"
           style="fill:none;stroke:#000000;stroke-width:0.81923002;stroke-linecap:butt;stroke-linejoin:miter;stroke-miterlimit:4;stroke-dasharray:9.830757, 9.830757;stroke-dashoffset:4.01422596;stroke-opacity:1"
           id="path24"
           inkscape:connector-curvature="0" /></g><g
         id="g26"
         transform="matrix(1,0,0,-1,0,404.76297)"><path
           d="m 39.762,374.57 195.429,0"
           style="fill:none;stroke:#215f97;stroke-width:0.80000001;stroke-linecap:butt;stroke-linejoin:miter;stroke-miterlimit:4;stroke-dasharray:none;stroke-opacity:1"
           id="path28"
           inkscape:connector-curvature="0" /></g><g
         id="g30"
         transform="matrix(1,0,0,-1,0,404.76297)"><path
           d="m 39.617,370.57 0,8"
           style="fill:none;stroke:#215f97;stroke-width:0.80000001;stroke-linecap:butt;stroke-linejoin:miter;stroke-miterlimit:4;stroke-dasharray:none;stroke-opacity:1"
           id="path32"
           inkscape:connector-curvature="0" /></g><g
         id="g34"
         transform="matrix(1,0,0,-1,0,404.76297)"><path
           d="m 235.047,370.57 0,8"
           style="fill:none;stroke:#215f97;stroke-width:0.80000001;stroke-linecap:butt;stroke-linejoin:miter;stroke-miterlimit:4;stroke-dasharray:none;stroke-opacity:1"
           id="path36"
           inkscape:connector-curvature="0" /></g><text
         transform="matrix(1,0,0,-1,131.46397,14.173226)"
         style="font-variant:normal;font-weight:normal;font-size:24px;font-family:'Times New Roman';-inkscape-font-specification:TimesNewRomanPSMT;writing-mode:lr-tb;fill:#215f97;fill-opacity:1;fill-rule:nonzero;stroke:none"
         id="text38"><tspan
           x="0"
           y="0"
           id="tspan40"
           style="font-style:italic">x</tspan></text>
<g
         id="g42"
         transform="matrix(1,0,0,-1,0,404.76297)"><path
           d="m 41.379,362.156 c 0,0.891 -0.723,1.614 -1.617,1.614 -0.891,0 -1.617,-0.723 -1.617,-1.614 0,-0.894 0.726,-1.617 1.617,-1.617 0.894,0 1.617,0.723 1.617,1.617 z"
           style="fill:#000000;fill-opacity:1;fill-rule:nonzero;stroke:#000000;stroke-width:0.80000001;stroke-linecap:butt;stroke-linejoin:miter;stroke-miterlimit:4;stroke-dasharray:none;stroke-opacity:1"
           id="path44"
           inkscape:connector-curvature="0" /></g><text
         transform="matrix(1,0,0,-1,12.673236,28.036947)"
         style="font-variant:normal;font-weight:normal;font-size:24px;font-family:'Times New Roman';-inkscape-font-specification:TimesNewRomanPSMT;writing-mode:lr-tb;fill:#000000;fill-opacity:1;fill-rule:nonzero;stroke:none"
         id="text46"><tspan
           x="0"
           y="0"
           id="tspan48"
           style="font-style:italic">S</tspan></text>
<text
         transform="matrix(1,0,0,-1,26.032611,23.236947)"
         style="font-variant:normal;font-weight:normal;font-size:15.60021973px;font-family:'Times New Roman';-inkscape-font-specification:TimesNewRomanPSMT;writing-mode:lr-tb;fill:#000000;fill-opacity:1;fill-rule:nonzero;stroke:none"
         id="text50"><tspan
           x="0"
           y="0"
           id="tspan52"
           style="font-style:italic">1</tspan></text>
<g
         id="g54"
         transform="matrix(1,0,0,-1,0,404.76297)"><path
           d="M 31.414,355.691 154.055,259.543"
           style="fill:none;stroke:#215f97;stroke-width:0.80000001;stroke-linecap:butt;stroke-linejoin:miter;stroke-miterlimit:4;stroke-dasharray:none;stroke-opacity:1"
           id="path56"
           inkscape:connector-curvature="0" /></g><g
         id="g58"
         transform="matrix(1,0,0,-1,0,404.76297)"><path
           d="m 28.996,353.125 4.629,5.609"
           style="fill:none;stroke:#215f97;stroke-width:0.80000001;stroke-linecap:butt;stroke-linejoin:miter;stroke-miterlimit:4;stroke-dasharray:none;stroke-opacity:1"
           id="path60"
           inkscape:connector-curvature="0" /></g><text
         transform="matrix(1,0,0,-1,72.2565,105.73856)"
         style="font-variant:normal;font-weight:normal;font-size:24px;font-family:'Times New Roman';-inkscape-font-specification:TimesNewRomanPSMT;writing-mode:lr-tb;fill:#215f97;fill-opacity:1;fill-rule:nonzero;stroke:none"
         id="text62"><tspan
           x="0"
           y="0"
           id="tspan64"
           style="font-style:italic">y</tspan></text>
<g
         id="g66"
         transform="matrix(1,0,0,-1,0,404.76297)"><path
           d="m 237.164,362.156 c 0,0.891 -0.723,1.614 -1.617,1.614 -0.891,0 -1.617,-0.723 -1.617,-1.614 0,-0.894 0.726,-1.617 1.617,-1.617 0.894,0 1.617,0.723 1.617,1.617 z"
           style="fill:#000000;fill-opacity:1;fill-rule:nonzero;stroke:#000000;stroke-width:0.80000001;stroke-linecap:butt;stroke-linejoin:miter;stroke-miterlimit:4;stroke-dasharray:none;stroke-opacity:1"
           id="path68"
           inkscape:connector-curvature="0" /></g><text
         transform="matrix(1,0,0,-1,239.01243,26.218685)"
         style="font-variant:normal;font-weight:normal;font-size:24px;font-family:'Times New Roman';-inkscape-font-specification:TimesNewRomanPSMT;writing-mode:lr-tb;fill:#000000;fill-opacity:1;fill-rule:nonzero;stroke:none"
         id="text70"><tspan
           x="0"
           y="0"
           id="tspan72"
           style="font-style:italic">S</tspan></text>
<text
         transform="matrix(1,0,0,-1,252.3718,21.418685)"
         style="font-variant:normal;font-weight:normal;font-size:15.60021973px;font-family:'Times New Roman';-inkscape-font-specification:TimesNewRomanPSMT;writing-mode:lr-tb;fill:#000000;fill-opacity:1;fill-rule:nonzero;stroke:none"
         id="text74"><tspan
           x="0"
           y="0"
           id="tspan76"
           style="font-style:italic">2</tspan></text>
<g
         id="g78"
         transform="matrix(1,0,0,-1,0,404.76297)"><path
           d="m 137.477,361.695 0,-307.488"
           style="fill:none;stroke:#000000;stroke-width:0.56;stroke-linecap:butt;stroke-linejoin:miter;stroke-miterlimit:4;stroke-dasharray:3.36, 3.36;stroke-dashoffset:0;stroke-opacity:1"
           id="path80"
           inkscape:connector-curvature="0" /></g><g
         id="g82"
         transform="matrix(1,0,0,-1,0,404.76297)"><path
           d="m 235.625,362.152 -75.18,-95.156"
           style="fill:none;stroke:#000000;stroke-width:0.80000001;stroke-linecap:butt;stroke-linejoin:miter;stroke-miterlimit:4;stroke-dasharray:none;stroke-opacity:1"
           id="path84"
           inkscape:connector-curvature="0" /></g><g
         id="g86"
         transform="matrix(0.794292,-0.997946,-1,-0.791704,0,404.76297)"><path
           d="m 242.14,32.177 8.478,0 0.001,8.392 -8.481,-0.002 0.002,-8.39 z"
           style="fill:none;stroke:#000000;stroke-width:0.627226;stroke-linecap:butt;stroke-linejoin:miter;stroke-miterlimit:4;stroke-dasharray:none;stroke-opacity:1"
           id="path88"
           inkscape:connector-curvature="0" /></g><g
         id="g90"
         transform="matrix(1,0,0,-1,0,404.76297)"><path
           d="M 137.492,362.281 394.41,83.121"
           style="fill:none;stroke:#000000;stroke-width:0.80000001;stroke-linecap:butt;stroke-linejoin:miter;stroke-miterlimit:4;stroke-dasharray:9.6, 9.6;stroke-dashoffset:0.72000003;stroke-opacity:1"
           id="path92"
           inkscape:connector-curvature="0" /></g><g
         id="g94"
         transform="matrix(1,0,0,-1,0,404.76297)"><path
           d="m 137.426,333.223 c 12.262,0.078 17.601,10.164 17.601,10.164"
           style="fill:none;stroke:#e7716c;stroke-width:0.80000001;stroke-linecap:butt;stroke-linejoin:miter;stroke-miterlimit:4;stroke-dasharray:none;stroke-opacity:1"
           id="path96"
           inkscape:connector-curvature="0" /></g><text
         transform="matrix(1,0,0,-1,145.27747,73.405159)"
         style="font-variant:normal;font-weight:normal;font-size:24px;font-family:'Times New Roman';-inkscape-font-specification:TimesNewRomanPSMT;writing-mode:lr-tb;fill:#e7716c;fill-opacity:1;fill-rule:nonzero;stroke:none"
         id="text98"><tspan
           x="0"
           y="0"
           id="tspan100"
           style="font-style:italic">θ</tspan></text>
<g
         id="g102"
         transform="matrix(1,0,0,-1,0,404.76297)"><path
           d="m 393.824,77.043 c 0,2.625 -2.125,4.754 -4.75,4.754 -2.625,0 -4.75,-2.129 -4.75,-4.754 0,-2.621 2.125,-4.75 4.75,-4.75 2.625,0 4.75,2.129 4.75,4.75 z"
           style="fill:none;stroke:#000000;stroke-width:0.56;stroke-linecap:butt;stroke-linejoin:miter;stroke-miterlimit:4;stroke-dasharray:none;stroke-opacity:1"
           id="path104"
           inkscape:connector-curvature="0" /></g><g
         id="g106"
         transform="matrix(1,0,0,-1,0,404.76297)"><path
           d="m 393.824,43.48 c 0,2.625 -2.125,4.75 -4.75,4.75 -2.625,0 -4.75,-2.125 -4.75,-4.75 0,-2.621 2.125,-4.75 4.75,-4.75 2.625,0 4.75,2.129 4.75,4.75 z"
           style="fill:none;stroke:#000000;stroke-width:0.56;stroke-linecap:butt;stroke-linejoin:miter;stroke-miterlimit:4;stroke-dasharray:none;stroke-opacity:1"
           id="path108"
           inkscape:connector-curvature="0" /></g><g
         id="g110"
         transform="matrix(1,0,0,-1,0,404.76297)"><path
           d="m 393.289,45.703 c 8.277,2.988 7.738,11.953 7.738,11.953 l 0,1.305"
           style="fill:none;stroke:#000000;stroke-width:0.80000001;stroke-linecap:butt;stroke-linejoin:miter;stroke-miterlimit:4;stroke-dasharray:none;stroke-opacity:1"
           id="path112"
           inkscape:connector-curvature="0" /></g><g
         id="g114"
         transform="matrix(1,0,0,-1,0,404.76297)"><path
           d="m 419.879,43.48 c 0,2.625 -2.129,4.75 -4.75,4.75 -2.625,0 -4.754,-2.125 -4.754,-4.75 0,-2.621 2.129,-4.75 4.754,-4.75 2.621,0 4.75,2.129 4.75,4.75 z"
           style="fill:none;stroke:#000000;stroke-width:0.56;stroke-linecap:butt;stroke-linejoin:miter;stroke-miterlimit:4;stroke-dasharray:none;stroke-opacity:1"
           id="path116"
           inkscape:connector-curvature="0" /></g><g
         id="g118"
         transform="matrix(1,0,0,-1,0,404.76297)"><path
           d="m 410.953,45.703 c -8.273,2.988 -7.738,11.953 -7.738,11.953 l 0,1.305"
           style="fill:none;stroke:#000000;stroke-width:0.80000001;stroke-linecap:butt;stroke-linejoin:miter;stroke-miterlimit:4;stroke-dasharray:none;stroke-opacity:1"
           id="path120"
           inkscape:connector-curvature="0" /></g><g
         id="g122"
         transform="matrix(1,0,0,-1,0,404.76297)"><path
           d="m 393.824,77.043 c 0,2.625 -2.125,4.754 -4.75,4.754 -2.625,0 -4.75,-2.129 -4.75,-4.754 0,-2.621 2.125,-4.75 4.75,-4.75 2.625,0 4.75,2.129 4.75,4.75 z"
           style="fill:none;stroke:#000000;stroke-width:0.56;stroke-linecap:butt;stroke-linejoin:miter;stroke-miterlimit:4;stroke-dasharray:none;stroke-opacity:1"
           id="path124"
           inkscape:connector-curvature="0" /></g><g
         id="g126"
         transform="matrix(1,0,0,-1,0,404.76297)"><path
           d="m 393.289,74.523 c 8.277,-2.988 7.738,-11.953 7.738,-11.953 l 0,-1.304"
           style="fill:none;stroke:#000000;stroke-width:0.80000001;stroke-linecap:butt;stroke-linejoin:miter;stroke-miterlimit:4;stroke-dasharray:none;stroke-opacity:1"
           id="path128"
           inkscape:connector-curvature="0" /></g><g
         id="g130"
         transform="matrix(1,0,0,-1,0,404.76297)"><path
           d="m 419.879,77.043 c 0,2.625 -2.129,4.754 -4.75,4.754 -2.625,0 -4.754,-2.129 -4.754,-4.754 0,-2.621 2.129,-4.75 4.754,-4.75 2.621,0 4.75,2.129 4.75,4.75 z"
           style="fill:none;stroke:#000000;stroke-width:0.56;stroke-linecap:butt;stroke-linejoin:miter;stroke-miterlimit:4;stroke-dasharray:none;stroke-opacity:1"
           id="path132"
           inkscape:connector-curvature="0" /></g><g
         id="g134"
         transform="matrix(1,0,0,-1,0,404.76297)"><path
           d="M 410.953,74.523 C 402.68,71.535 403.215,62.57 403.215,62.57 l 0,-1.304"
           style="fill:none;stroke:#000000;stroke-width:0.80000001;stroke-linecap:butt;stroke-linejoin:miter;stroke-miterlimit:4;stroke-dasharray:none;stroke-opacity:1"
           id="path136"
           inkscape:connector-curvature="0" /></g><g
         id="g138"
         transform="matrix(1,0,0,-1,0,404.76297)"><path
           d="m 401.633,49.066 1.316,0 c 1.465,0 2.645,1.18 2.645,2.645 l 0,15.641 c 0,1.464 -1.18,2.64 -2.645,2.64 l -1.316,0 c -1.465,0 -2.645,-1.176 -2.645,-2.64 l 0,-15.641 c 0,-1.465 1.18,-2.645 2.645,-2.645 z"
           style="fill:#000000;fill-opacity:1;fill-rule:nonzero;stroke:#000000;stroke-width:1.28224599;stroke-linecap:butt;stroke-linejoin:round;stroke-miterlimit:4;stroke-dasharray:none;stroke-opacity:1"
           id="path140"
           inkscape:connector-curvature="0" /></g><text
         transform="matrix(1,0,0,-1,373.19849,374.69911)"
         style="font-variant:normal;font-weight:normal;font-size:24px;font-family:'Times New Roman';-inkscape-font-specification:TimesNewRomanPSMT;writing-mode:lr-tb;fill:#000000;fill-opacity:1;fill-rule:nonzero;stroke:none"
         id="text142"><tspan
           x="0 17.327999 25.32 37.32 49.32"
           y="0"
           sodipodi:role="line"
           id="tspan144">Drone</tspan></text>
<g
         id="g146"
         transform="matrix(1,0,0,-1,0,404.76297)"><path
           d="m 152.012,256.695 4.629,5.606"
           style="fill:none;stroke:#215f97;stroke-width:0.80000001;stroke-linecap:butt;stroke-linejoin:miter;stroke-miterlimit:4;stroke-dasharray:none;stroke-opacity:1"
           id="path148"
           inkscape:connector-curvature="0" /></g><text
         transform="matrix(1,0,0,-1,191.6,187.20001)"
         style="font-variant:normal;font-weight:normal;font-size:24px;font-family:'Times New Roman';-inkscape-font-specification:TimesNewRomanPSMT;writing-mode:lr-tb;fill:#000000;fill-opacity:1;fill-rule:nonzero;stroke:none"
         id="text150"><tspan
           x="0"
           y="0"
           id="tspan152"
           style="font-style:italic">d</tspan></text>
<text
         transform="matrix(1,0,0,-1,203.6,182.40001)"
         style="font-variant:normal;font-weight:normal;font-size:15.60021973px;font-family:'Times New Roman';-inkscape-font-specification:TimesNewRomanPSMT;writing-mode:lr-tb;fill:#000000;fill-opacity:1;fill-rule:nonzero;stroke:none"
         id="text154"><tspan
           x="0"
           y="0"
           id="tspan156"
           style="font-style:italic">1</tspan></text>
<text
         transform="matrix(1,0,0,-1,298.4,128.00001)"
         style="font-variant:normal;font-weight:normal;font-size:24px;font-family:'Times New Roman';-inkscape-font-specification:TimesNewRomanPSMT;writing-mode:lr-tb;fill:#000000;fill-opacity:1;fill-rule:nonzero;stroke:none"
         id="text158"><tspan
           x="0"
           y="0"
           id="tspan160"
           style="font-style:italic">d</tspan></text>
<text
         transform="matrix(1,0,0,-1,310.4,123.20001)"
         style="font-variant:normal;font-weight:normal;font-size:15.60021973px;font-family:'Times New Roman';-inkscape-font-specification:TimesNewRomanPSMT;writing-mode:lr-tb;fill:#000000;fill-opacity:1;fill-rule:nonzero;stroke:none"
         id="text162"><tspan
           x="0"
           y="0"
           id="tspan164"
           style="font-style:italic">2</tspan></text>
<g
         id="g166"
         transform="matrix(1,0,0,-1,0,404.76297)"><path
           d="m 398.172,81.926 c 0,0.89 -0.723,1.613 -1.617,1.613 -0.891,0 -1.617,-0.723 -1.617,-1.613 0,-0.895 0.726,-1.617 1.617,-1.617 0.894,0 1.617,0.722 1.617,1.617 z"
           style="fill:#000000;fill-opacity:1;fill-rule:nonzero;stroke:#000000;stroke-width:0.80000001;stroke-linecap:butt;stroke-linejoin:miter;stroke-miterlimit:4;stroke-dasharray:none;stroke-opacity:1"
           id="path168"
           inkscape:connector-curvature="0" /></g><text
         transform="matrix(1,0,0,-1,401.97935,302.55965)"
         style="font-variant:normal;font-weight:normal;font-size:24px;font-family:'Times New Roman';-inkscape-font-specification:TimesNewRomanPSMT;writing-mode:lr-tb;fill:#000000;fill-opacity:1;fill-rule:nonzero;stroke:none"
         id="text170"><tspan
           x="0"
           y="0"
           id="tspan172"
           style="font-style:italic">P</tspan></text>
<g
         id="g174"
         transform="matrix(1,0,0,-1,0,404.76297)"><path
           d="m 162.301,266.695 c 0,0.891 -0.727,1.618 -1.617,1.618 -0.895,0 -1.618,-0.727 -1.618,-1.618 0,-0.894 0.723,-1.617 1.618,-1.617 0.89,0 1.617,0.723 1.617,1.617 z"
           style="fill:#000000;fill-opacity:1;fill-rule:nonzero;stroke:#000000;stroke-width:0.80000001;stroke-linecap:butt;stroke-linejoin:miter;stroke-miterlimit:4;stroke-dasharray:none;stroke-opacity:1"
           id="path176"
           inkscape:connector-curvature="0" /></g><text
         transform="matrix(1,0,0,-1,153.28824,153.8741)"
         style="font-variant:normal;font-weight:normal;font-size:24px;font-family:'Times New Roman';-inkscape-font-specification:TimesNewRomanPSMT;writing-mode:lr-tb;fill:#000000;fill-opacity:1;fill-rule:nonzero;stroke:none"
         id="text178"><tspan
           x="0"
           y="0"
           id="tspan180"
           style="font-style:italic">M</tspan></text>
<text
         transform="matrix(1,0,0,-1,198.0461,50.043734)"
         style="font-variant:normal;font-weight:normal;font-size:24px;font-family:'Times New Roman';-inkscape-font-specification:TimesNewRomanPSMT;writing-mode:lr-tb;fill:#e7716c;fill-opacity:1;fill-rule:nonzero;stroke:none"
         id="text182"><tspan
           x="0"
           y="0"
           id="tspan184"
           style="font-style:italic">θ</tspan></text>
<g
         id="g186"
         transform="matrix(1,0,0,-1,0,404.76297)"><path
           d="m 210.824,361.742 c 0.074,-12.262 10.164,-17.601 10.164,-17.601"
           style="fill:none;stroke:#e7716c;stroke-width:0.80000001;stroke-linecap:butt;stroke-linejoin:miter;stroke-miterlimit:4;stroke-dasharray:none;stroke-opacity:1"
           id="path188"
           inkscape:connector-curvature="0" /></g></g></g></svg>